<svg version="1.1" id="Layer_1" xmlns="http://www.w3.org/2000/svg" xmlns:xlink="http://www.w3.org/1999/xlink" x="0px" y="0px"
	 width="100%" viewBox="0 0 500 500" enable-background="new 0 0 500 500" xml:space="preserve">
<path fill="#000000" opacity="1.000000" stroke="none" 
	d="
M281.000000,501.000000 
	C187.333359,501.000000 94.166710,501.000000 1.000050,501.000000 
	C1.000033,334.333405 1.000033,167.666794 1.000017,1.000139 
	C167.666565,1.000093 334.333130,1.000093 500.999756,1.000046 
	C500.999847,167.666519 500.999847,334.333038 500.999939,500.999786 
	C427.833344,501.000000 354.666656,501.000000 281.000000,501.000000 
M117.132988,402.662506 
	C118.194397,403.709381 119.132668,404.931580 120.335884,405.776459 
	C135.644806,416.525970 151.332687,426.513641 168.580872,434.098328 
	C193.603409,445.101685 219.814667,450.066040 246.874496,450.849121 
	C256.681793,451.132935 266.599701,450.134766 276.358063,448.875946 
	C286.756195,447.534668 297.202545,445.854706 307.312714,443.146301 
	C326.803650,437.924896 345.157318,429.685760 362.168701,418.851105 
	C369.897156,413.928772 376.762146,407.650635 384.723785,401.916809 
	C392.606750,393.981293 401.306244,386.686951 408.167664,377.949280 
	C416.895477,366.834717 424.926605,354.995941 431.845856,342.676239 
	C445.150421,318.987457 451.662262,292.963226 453.804199,266.070068 
	C455.334442,246.856491 454.346558,227.464661 449.742584,208.660065 
	C442.996094,181.104279 431.876312,155.525528 414.479980,132.684235 
	C404.311951,119.333702 393.041473,107.122009 380.015625,96.873985 
	C364.738281,84.854584 348.051056,74.991188 329.969727,67.186302 
	C304.588135,56.230240 278.069214,52.271141 250.919388,51.153416 
	C242.457840,50.805061 233.845093,51.842297 225.433670,53.117031 
	C213.792419,54.881233 202.034332,56.631901 190.758270,59.885548 
	C169.467804,66.028809 149.978012,76.136642 131.644455,88.702171 
	C117.918709,98.109596 105.960899,109.433090 95.103958,121.732704 
	C79.659378,139.229584 67.751038,159.213211 59.522545,181.119431 
	C51.953690,201.269562 47.381420,222.164978 47.078709,243.777344 
	C46.944569,253.354507 47.046814,263.016907 48.164402,272.508423 
	C49.485973,283.732422 51.459171,294.951508 54.155621,305.925598 
	C58.640942,324.180084 66.737045,341.150238 76.722466,356.882599 
	C86.735046,372.657776 99.073563,386.829132 113.025703,399.428314 
	C114.173889,400.465149 115.649178,401.139771 117.132988,402.662506 
z"/>
<path fill="#FAFCFD" opacity="1.000000" stroke="none" 
	d="
M116.972473,401.982727 
	C115.649178,401.139771 114.173889,400.465149 113.025703,399.428314 
	C99.073563,386.829132 86.735046,372.657776 76.722466,356.882599 
	C66.737045,341.150238 58.640942,324.180084 54.155621,305.925598 
	C51.459171,294.951508 49.485973,283.732422 48.164402,272.508423 
	C47.046814,263.016907 46.944569,253.354507 47.078709,243.777344 
	C47.381420,222.164978 51.953690,201.269562 59.522545,181.119431 
	C67.751038,159.213211 79.659378,139.229584 95.103958,121.732704 
	C105.960899,109.433090 117.918709,98.109596 131.644455,88.702171 
	C149.978012,76.136642 169.467804,66.028809 190.758270,59.885548 
	C202.034332,56.631901 213.792419,54.881233 225.433670,53.117031 
	C233.845093,51.842297 242.457840,50.805061 250.919388,51.153416 
	C278.069214,52.271141 304.588135,56.230240 329.969727,67.186302 
	C348.051056,74.991188 364.738281,84.854584 380.015625,96.873985 
	C393.041473,107.122009 404.311951,119.333702 414.479980,132.684235 
	C431.876312,155.525528 442.996094,181.104279 449.742584,208.660065 
	C454.346558,227.464661 455.334442,246.856491 453.804199,266.070068 
	C451.662262,292.963226 445.150421,318.987457 431.845856,342.676239 
	C424.926605,354.995941 416.895477,366.834717 408.167664,377.949280 
	C401.306244,386.686951 392.606750,393.981293 384.389648,401.601105 
	C380.869568,398.149292 377.683655,395.013184 374.668640,391.571777 
	C383.814728,381.697174 393.628174,372.771881 401.582825,362.418518 
	C416.163300,343.441376 427.095123,322.304565 432.622070,298.848999 
	C435.612640,286.157471 437.367828,273.174835 439.708008,260.169708 
	C429.612946,259.634979 425.264832,256.963776 425.348877,251.523407 
	C425.381836,249.389923 426.250763,246.275497 427.782562,245.366623 
	C430.938995,243.493713 434.797394,242.803848 438.566254,241.561539 
	C435.210693,140.107910 341.956238,64.474869 257.216370,67.419991 
	C260.274963,73.690796 259.813721,78.255119 255.655106,81.255188 
	C252.334488,83.650726 248.866180,83.856743 245.523346,81.252548 
	C241.171173,77.862045 240.863220,73.809700 244.346512,67.086266 
	C142.455444,66.109833 63.260208,156.141296 62.833839,242.225693 
	C72.553284,243.123047 75.631935,245.514343 75.219955,251.846436 
	C74.815170,258.067871 71.455742,260.191040 62.087215,259.735931 
	C62.727982,265.573792 63.223705,271.344086 64.013245,277.073914 
	C68.200470,307.461365 79.123322,335.314453 97.466026,359.812164 
	C105.882690,371.053101 116.387604,380.730408 125.779800,391.394897 
	C122.733536,395.109528 119.853004,398.546143 116.972473,401.982727 
z"/>
<path fill="#AECCD8" opacity="1.000000" stroke="none" 
	d="
M117.052734,402.322632 
	C119.853004,398.546143 122.733536,395.109528 126.099457,391.493408 
	C160.822937,419.736084 200.138000,434.452393 245.254562,436.006287 
	C241.030121,429.043182 241.018433,425.312408 244.670364,421.584320 
	C247.639542,418.553223 251.292419,417.743103 254.525223,420.399017 
	C256.630829,422.128845 258.531342,425.061737 258.897369,427.682800 
	C259.251312,430.217468 257.522186,433.042999 256.500458,436.428528 
	C266.316467,435.264252 275.930115,434.443939 285.434753,432.936523 
	C313.713928,428.451477 339.214050,417.123169 362.582581,400.791534 
	C366.646240,397.951569 370.530548,394.855042 374.497742,391.877045 
	C377.683655,395.013184 380.869568,398.149292 384.037170,401.636475 
	C376.762146,407.650635 369.897156,413.928772 362.168701,418.851105 
	C345.157318,429.685760 326.803650,437.924896 307.312714,443.146301 
	C297.202545,445.854706 286.756195,447.534668 276.358063,448.875946 
	C266.599701,450.134766 256.681793,451.132935 246.874496,450.849121 
	C219.814667,450.066040 193.603409,445.101685 168.580872,434.098328 
	C151.332687,426.513641 135.644806,416.525970 120.335884,405.776459 
	C119.132668,404.931580 118.194397,403.709381 117.052734,402.322632 
z"/>
<path fill="#0A364D" opacity="1.000000" stroke="none" 
	d="
M374.668640,391.571777 
	C370.530548,394.855042 366.646240,397.951569 362.582581,400.791534 
	C339.214050,417.123169 313.713928,428.451477 285.434753,432.936523 
	C275.930115,434.443939 266.316467,435.264252 256.500458,436.428528 
	C257.522186,433.042999 259.251312,430.217468 258.897369,427.682800 
	C258.531342,425.061737 256.630829,422.128845 254.525223,420.399017 
	C251.292419,417.743103 247.639542,418.553223 244.670364,421.584320 
	C241.018433,425.312408 241.030121,429.043182 245.254562,436.006287 
	C200.138000,434.452393 160.822937,419.736084 126.265182,391.215332 
	C116.387604,380.730408 105.882690,371.053101 97.466026,359.812164 
	C79.123322,335.314453 68.200470,307.461365 64.013245,277.073914 
	C63.223705,271.344086 62.727982,265.573792 62.087215,259.735931 
	C71.455742,260.191040 74.815170,258.067871 75.219955,251.846436 
	C75.631935,245.514343 72.553284,243.123047 62.833839,242.225693 
	C63.260208,156.141296 142.455444,66.109833 244.346512,67.086266 
	C240.863220,73.809700 241.171173,77.862045 245.523346,81.252548 
	C248.866180,83.856743 252.334488,83.650726 255.655106,81.255188 
	C259.813721,78.255119 260.274963,73.690796 257.216370,67.419991 
	C341.956238,64.474869 435.210693,140.107910 438.566254,241.561539 
	C434.797394,242.803848 430.938995,243.493713 427.782562,245.366623 
	C426.250763,246.275497 425.381836,249.389923 425.348877,251.523407 
	C425.264832,256.963776 429.612946,259.634979 439.708008,260.169708 
	C437.367828,273.174835 435.612640,286.157471 432.622070,298.848999 
	C427.095123,322.304565 416.163300,343.441376 401.582825,362.418518 
	C393.628174,372.771881 383.814728,381.697174 374.668640,391.571777 
M287.904297,364.196808 
	C288.814301,363.871857 289.724304,363.546875 291.377106,363.336884 
	C311.515442,357.335541 329.172424,346.993378 344.055359,332.231873 
	C349.277649,327.052277 353.433502,320.797516 358.638428,314.674683 
	C369.326721,299.632812 376.129242,283.069794 378.150940,264.652863 
	C378.559509,260.931000 380.244873,258.787506 384.261414,259.065582 
	C388.710236,259.373566 393.206970,260.142395 397.596893,259.749664 
	C400.599182,259.481049 404.675354,258.344818 406.051117,256.183289 
	C407.601318,253.747726 407.885162,248.993576 406.454987,246.602646 
	C405.048126,244.250656 400.902191,242.772217 397.779236,242.396011 
	C393.412720,241.870010 388.879181,242.705841 384.419006,242.988846 
	C380.541229,243.234909 378.705750,241.316940 378.019653,237.591446 
	C371.016418,199.562012 350.298523,170.974014 317.837799,150.537476 
	C301.669617,140.358337 284.166840,134.141006 265.006744,132.813110 
	C258.517334,132.363358 257.928375,131.742813 258.119690,125.230614 
	C258.284515,119.621140 258.796204,114.019707 259.237701,108.421272 
	C259.535583,104.644569 258.706970,100.962952 255.179764,99.523964 
	C252.595184,98.469543 248.416397,97.988213 246.536545,99.386642 
	C244.196869,101.127121 242.475266,105.004250 242.292343,108.066521 
	C241.910294,114.462769 242.624191,120.935844 243.063416,127.365379 
	C243.315109,131.050125 241.667221,132.112122 238.172440,132.563660 
	C230.118301,133.604340 222.040207,134.792099 214.143295,136.649307 
	C196.463501,140.807266 181.671402,150.671616 167.211838,160.559265 
	C167.546997,156.562805 170.276901,154.662033 173.513947,153.007187 
	C175.865112,151.805237 178.000732,150.181686 180.458633,148.600632 
	C177.409943,144.548218 175.383987,144.139099 171.749420,146.909973 
	C167.900543,149.844223 166.805313,156.574814 160.024414,155.791229 
	C159.500320,155.730652 158.746658,158.176682 157.999741,159.396484 
	C157.005783,161.019745 156.051682,162.700912 154.823410,164.137451 
	C153.682144,165.472244 152.203522,166.518600 150.873428,167.691940 
	C150.820282,167.337372 150.767136,166.982803 150.713989,166.628235 
	C146.662277,166.899109 142.610565,167.169983 138.323746,167.456573 
	C139.248871,178.381851 146.104477,168.848801 150.002365,170.672714 
	C148.104340,173.003555 146.896774,176.007385 144.956009,176.596725 
	C137.950150,178.724121 134.774780,184.057938 131.422531,190.244675 
	C130.831848,190.451584 130.241150,190.658478 129.815247,190.116013 
	C131.973465,186.102158 134.467163,182.220367 136.124908,178.009476 
	C136.788712,176.323303 135.611938,173.912521 135.272980,171.831573 
	C133.267944,172.380615 130.143509,172.306671 129.436050,173.577866 
	C124.066040,183.226913 119.033073,193.074112 114.263969,203.036179 
	C113.503967,204.623718 114.590790,207.095398 114.823814,209.158325 
	C116.885010,208.772675 118.946213,208.387024 121.548523,208.476151 
	C122.480072,212.885544 120.431641,214.156937 116.336517,213.703705 
	C114.982582,213.553864 113.541451,214.191956 112.140182,214.469803 
	C113.023956,215.910599 113.589050,218.134094 114.850357,218.647644 
	C118.876633,220.286942 118.560555,223.416443 117.961296,226.459610 
	C117.284332,229.897415 115.757622,233.172287 115.138557,236.614777 
	C114.916557,237.849304 116.261749,239.365662 116.891663,240.753387 
	C117.978226,239.796936 119.082077,238.859253 120.146385,237.878647 
	C121.164398,236.940659 122.141289,235.958038 123.269180,235.801804 
	C121.311012,238.007950 123.114616,242.992203 118.184769,242.947006 
	C113.554993,242.904587 108.893867,242.169403 104.310913,242.538406 
	C101.113945,242.795837 97.258598,243.577728 95.077049,245.607941 
	C92.154274,248.327896 92.311745,252.562057 94.491447,256.240723 
	C96.578529,259.763092 99.920769,260.225891 103.602997,259.934387 
	C107.885994,259.595306 112.180626,259.403290 116.463722,259.065277 
	C120.975800,258.709229 122.454155,261.035675 123.012741,265.235992 
	C126.964142,294.948578 141.057465,318.992371 164.286575,338.528168 
	C165.179672,339.034180 166.072769,339.540161 167.001602,340.002014 
	C167.001602,340.002014 166.956894,340.036041 167.102448,340.706146 
	C189.068222,358.417358 214.116516,368.422668 242.419327,370.087860 
	C242.547348,371.884460 242.709824,373.027863 242.696838,374.169281 
	C242.620956,380.833588 242.420334,387.497559 242.426453,394.161438 
	C242.431641,399.797546 245.811508,403.734589 250.455078,403.826355 
	C255.250748,403.921173 258.568481,400.350555 258.825134,394.581055 
	C258.980560,391.087769 258.950897,387.580536 258.851013,384.083954 
	C258.800293,382.309570 259.070374,379.687927 258.066437,378.914307 
	C251.322525,373.717224 251.082535,366.468842 251.297897,358.119019 
	C251.297897,351.054321 251.297897,343.989594 251.297897,336.610107 
	C238.293243,343.156372 239.361450,345.246796 219.418198,344.017578 
	C218.268173,343.946686 217.087082,344.102875 215.941101,344.283936 
	C193.639481,347.807617 175.568268,336.942261 168.299133,315.819031 
	C167.771912,314.286957 166.150055,312.619354 164.637527,312.015289 
	C141.121048,302.623383 129.886871,279.195648 137.322281,255.031982 
	C137.896225,253.166794 137.775940,250.843719 137.258560,248.927826 
	C134.501770,238.719147 133.797592,228.680695 139.325867,219.287125 
	C140.232269,223.282196 141.138687,227.277267 142.045090,231.272324 
	C141.532486,231.055435 141.019867,230.838531 140.507263,230.621643 
	C139.343445,231.862305 137.458725,232.962433 137.183136,234.376236 
	C136.759491,236.549500 136.793320,239.274887 137.778549,241.170700 
	C140.449036,246.309219 141.377762,251.769302 142.333298,257.354950 
	C143.546509,264.446808 143.766876,264.437592 137.003799,267.159607 
	C137.003799,269.196289 136.842010,271.367920 137.068817,273.498230 
	C137.190918,274.645203 137.979065,275.721252 138.466690,276.829315 
	C139.359833,275.925354 140.258987,275.027191 141.144119,274.115448 
	C141.769730,273.471008 142.376358,272.808105 143.463181,271.651459 
	C145.428253,277.967316 147.203751,283.669708 148.970306,289.374847 
	C149.016876,289.525238 149.036377,289.778015 148.950317,289.862061 
	C143.378082,295.304779 148.695374,297.173737 152.115540,299.760406 
	C152.866028,300.328003 153.174026,301.444977 153.815109,302.199005 
	C156.863419,305.784302 160.558655,308.329468 165.407990,306.771759 
	C167.765198,306.014587 169.890457,304.195831 171.799240,302.496552 
	C173.171097,301.275269 174.010590,299.455994 175.941986,297.981140 
	C178.748444,298.107941 181.751022,297.194580 182.788055,301.516266 
	C183.961304,306.405548 185.396332,311.402130 187.773193,315.778748 
	C189.682343,319.294128 192.821320,322.397156 196.028549,324.894745 
	C201.436356,329.106049 207.853378,327.849823 214.924286,326.841980 
	C217.750397,327.113007 220.576523,327.384033 224.374054,327.748230 
	C223.874069,322.852600 223.420975,318.415955 222.799652,313.238800 
	C222.459473,309.808929 221.057770,306.039276 222.022018,303.026947 
	C223.559265,298.224579 228.875687,296.743958 233.571609,298.654297 
	C238.690994,300.736938 240.025116,304.311829 237.883224,311.842224 
	C237.133438,315.800995 236.383652,319.759766 235.524872,324.293945 
	C245.940384,321.440521 252.698730,308.273407 250.905777,295.985077 
	C251.028809,282.011200 251.223816,268.037018 251.164703,254.063904 
	C251.158737,252.651031 249.961182,250.739136 248.739151,249.912277 
	C234.076981,239.991470 234.140564,221.472549 248.886688,211.385437 
	C250.010681,210.616562 251.106598,208.900513 251.142395,207.595306 
	C251.361282,199.614578 251.460052,191.620010 251.235870,183.640259 
	C250.934235,172.903610 242.546509,164.636795 231.831955,164.000595 
	C223.898849,163.529526 217.448792,166.510757 211.771347,171.472458 
	C210.284500,169.849609 208.797638,168.226761 206.630234,165.861084 
	C208.605545,164.523514 210.581848,163.185257 212.508774,161.880447 
	C209.498383,159.080414 200.484253,160.242157 199.155441,164.003342 
	C198.064774,167.090408 196.127075,167.526382 193.829071,166.718277 
	C189.525696,165.204971 186.720520,166.709518 183.832306,169.889465 
	C181.286636,172.692261 178.853012,176.647110 174.070145,174.160080 
	C179.993408,167.670944 186.937149,163.084518 195.804825,161.478043 
	C198.854370,160.925568 202.076782,159.635010 204.531845,157.773666 
	C218.292267,147.340958 232.852982,143.625381 249.194870,151.285416 
	C250.221985,151.766876 251.837036,151.999130 252.767654,151.530807 
	C267.164612,144.285873 280.385040,146.850510 293.034698,155.880432 
	C295.779694,157.839935 298.805023,160.034058 301.986359,160.651810 
	C320.775024,164.300201 332.775421,175.252350 338.711761,193.263535 
	C339.216583,194.795197 340.207001,196.790710 341.498230,197.345383 
	C359.864655,205.235123 371.810547,227.443878 363.498566,249.952164 
	C363.035919,251.204895 363.134155,252.912460 363.565430,254.210999 
	C371.886810,279.265137 360.714233,302.852264 336.263153,311.984680 
	C334.905731,312.491669 333.418518,314.124023 333.027466,315.522247 
	C328.028625,333.395935 312.880890,345.015930 294.339325,344.975159 
	C281.361816,344.946625 280.317657,343.958862 280.431396,330.877930 
	C280.448853,328.868286 281.387024,326.866608 282.613098,325.125702 
	C287.706543,328.865570 293.482483,326.661865 299.675873,326.953705 
	C299.776001,326.609772 299.876129,326.265808 299.998291,325.989960 
	C299.998291,325.989960 299.937317,325.952515 300.541565,326.555084 
	C308.070435,324.337158 313.689453,320.080475 316.545929,311.877289 
	C312.749207,311.877289 309.603790,311.877289 306.133667,311.259674 
	C304.878693,309.939636 303.720917,308.507324 302.350739,307.320251 
	C297.989532,303.541901 294.069672,298.032654 289.009521,296.587250 
	C282.476532,294.721130 275.007355,296.132507 267.964722,296.132507 
	C267.964722,316.863953 267.964722,336.937805 267.748413,357.864563 
	C267.807159,359.907898 267.865875,361.951202 267.742188,364.918152 
	C267.726074,375.074951 268.145569,385.260254 267.484070,395.374817 
	C267.211182,399.547424 264.725006,403.614197 263.020081,407.633484 
	C262.410583,409.070282 261.136719,410.225250 260.390900,411.211578 
	C263.238464,418.070831 267.822540,420.279114 274.830566,418.961761 
	C279.319397,418.117981 280.815826,416.497925 280.748810,411.888397 
	C280.526276,396.576172 280.771301,381.257172 281.579468,365.784424 
	C283.444336,365.243134 285.309204,364.701874 287.070496,364.178772 
	C287.070496,364.178772 287.154602,364.241913 287.904297,364.196808 
M332.744720,295.909668 
	C344.655487,289.765656 346.117340,282.751007 336.713409,274.202576 
	C330.729095,270.522125 323.360565,270.263214 318.239777,273.134399 
	C312.060913,276.598755 307.736115,283.369873 302.312958,289.017761 
	C305.717773,292.217834 309.209381,295.499451 313.609039,298.943024 
	C319.755096,297.948029 325.901154,296.953064 332.744720,295.909668 
M117.990982,306.973328 
	C117.990982,306.973328 117.985207,306.886963 117.480988,307.544067 
	C121.926147,314.903534 126.238007,322.350342 130.946793,329.537079 
	C131.737976,330.744598 134.246277,330.827057 135.961166,331.429352 
	C136.403000,329.537598 137.823212,327.108582 137.127472,325.841461 
	C132.694778,317.768829 127.795753,309.952240 122.894394,301.309326 
	C120.604050,295.265289 118.313705,289.221222 116.139206,282.299622 
	C115.782196,279.520020 115.392044,276.744171 115.077156,273.959808 
	C114.738007,270.960693 113.442757,268.692413 110.118820,269.138947 
	C107.009506,269.556641 106.268120,272.030487 106.914711,274.756866 
	C108.088135,279.704712 109.462845,284.604797 110.970520,290.337952 
	C112.996017,295.563416 115.021523,300.788849 117.006844,306.733124 
	C117.363678,306.811279 117.720520,306.889435 117.990982,306.973328 
M278.013245,237.221512 
	C278.491150,232.335968 278.969055,227.450439 279.459900,222.432861 
	C274.315247,221.960388 269.720490,218.963455 267.050293,224.935211 
	C261.309357,220.063126 256.857361,219.979797 252.824142,224.668900 
	C249.365204,228.690338 249.764664,234.481354 253.747955,238.061279 
	C258.883514,242.676788 265.603485,240.459396 269.732788,232.699860 
	C270.766296,233.119370 272.276978,233.242767 272.752289,234.008682 
	C275.036285,237.689056 271.862762,240.030823 269.938965,242.171783 
	C265.997681,246.557983 265.789398,246.370834 270.643372,249.799637 
	C269.736389,250.645859 268.056274,251.477966 268.040527,252.340469 
	C267.856293,262.416595 267.922455,272.497345 267.922455,282.840698 
	C274.833008,282.840698 281.141968,282.935303 287.443695,282.763794 
	C288.762177,282.727936 290.298767,281.992279 291.321289,281.103363 
	C306.563477,267.853333 307.230377,266.256165 306.488281,246.144272 
	C306.469910,245.646713 306.379913,245.151810 306.310791,244.657104 
	C291.715607,237.604340 286.045258,228.560913 290.244507,216.978088 
	C291.953369,212.264587 295.472229,207.624298 299.373169,204.417114 
	C306.231506,198.778442 314.520203,200.288712 322.502228,202.737305 
	C322.459747,188.046997 311.574188,178.252029 296.196167,178.997131 
	C292.548828,179.173859 290.381195,178.603821 288.210022,175.185501 
	C282.572784,166.310287 273.575134,163.353806 263.465424,166.544968 
	C268.481140,173.249191 267.825500,180.984955 267.782837,188.626724 
	C267.749359,194.623611 267.565338,200.632996 267.910309,206.610153 
	C268.007568,208.295441 269.407501,210.256210 270.769501,211.454788 
	C275.661560,215.759781 281.298279,219.447052 281.077606,227.096680 
	C280.982391,230.396881 280.957520,233.699097 280.282654,237.056656 
	C279.521759,237.371094 278.760864,237.685547 278.013245,237.221512 
M166.272873,364.659760 
	C174.423874,369.060150 182.563293,373.482269 190.732880,377.847870 
	C193.215408,379.174469 196.065216,380.062653 197.691254,376.997467 
	C199.326477,373.915009 197.583237,371.833923 194.610336,370.341248 
	C187.094986,366.567780 179.680618,362.593231 171.798889,358.186859 
	C164.571411,352.386353 157.288376,346.653046 150.148254,340.746918 
	C147.822876,338.823486 145.756577,338.459717 143.622787,340.656616 
	C141.517014,342.824646 142.225143,344.979889 144.270706,346.652893 
	C151.437729,352.514557 158.686813,358.275848 166.272873,364.659760 
M378.406891,300.051514 
	C376.574890,303.547424 374.388855,306.916107 373.066772,310.595306 
	C372.446259,312.322021 373.490509,314.646912 373.780334,316.700745 
	C375.891663,316.048340 378.805725,316.035309 379.943115,314.607239 
	C382.144897,311.842834 383.346161,308.281464 385.176758,304.341492 
	C388.220398,294.343750 391.424500,284.388916 394.123230,274.298950 
	C394.499329,272.892792 392.795990,269.910095 391.339050,269.258423 
	C388.754486,268.102386 387.524078,269.986420 386.796753,272.772614 
	C384.438416,281.807007 381.662323,290.732330 378.406891,300.051514 
M156.247421,145.405426 
	C151.835800,149.437683 147.286575,153.336029 143.125702,157.612259 
	C142.267044,158.494720 142.185074,161.334747 142.958282,162.277008 
	C143.789474,163.289902 146.733292,163.993576 147.566788,163.332870 
	C151.112869,160.521881 154.218567,157.155334 158.105850,153.826981 
	C167.218399,147.609268 176.423538,141.519745 185.363785,135.063431 
	C187.107864,133.803925 189.223450,130.660217 188.738525,129.183105 
	C187.508896,125.437637 184.124054,126.851219 181.669891,128.210587 
	C175.728851,131.501343 169.815826,134.876617 164.138702,138.595184 
	C161.426804,140.371490 159.277115,143.006119 156.247421,145.405426 
M170.442520,102.130722 
	C164.263885,105.602058 157.620560,108.456017 152.008621,112.680214 
	C142.001129,120.213020 132.532745,128.477249 123.080452,136.712814 
	C121.924629,137.719849 121.307961,140.980194 122.052284,142.257965 
	C125.789948,148.674423 131.839310,148.662186 136.105377,142.610931 
	C136.675079,141.802826 137.283646,140.937210 138.073669,140.382095 
	C150.407516,131.715637 160.796539,120.227386 175.325119,114.713936 
	C176.430511,114.294441 177.159271,112.882416 178.813065,111.978714 
	C180.420471,111.562614 182.077133,111.279266 183.625763,110.704720 
	C187.748291,109.175232 189.543823,105.959908 189.399612,101.736076 
	C189.266083,97.825356 187.303192,95.065460 183.323196,94.251770 
	C179.220734,93.413055 175.719666,94.399216 173.421555,98.226326 
	C172.678299,99.464088 171.914032,100.689232 170.442520,102.130722 
M345.706146,253.317764 
	C345.681702,251.559662 345.042206,249.492996 345.741913,248.098145 
	C348.429901,242.739777 349.608917,237.258926 349.127045,231.255692 
	C348.489716,223.315887 340.304443,211.903198 330.050629,211.497116 
	C335.370758,225.724960 333.644623,232.494705 322.479034,241.677811 
	C321.707062,242.312714 320.948456,243.473450 320.917419,244.413879 
	C320.759949,249.182800 320.844879,253.959747 320.844879,258.310089 
	C327.568176,259.221985 333.756012,260.061279 340.635315,261.135345 
	C343.946869,262.821838 347.258453,264.508331 350.570007,266.194824 
	C350.995575,265.999298 351.421112,265.803802 351.846680,265.608276 
	C349.874725,261.715576 347.902802,257.822876 345.706146,253.317764 
M368.456360,169.261581 
	C365.879456,166.008728 363.618530,162.431427 360.670105,159.560074 
	C348.862518,148.061172 336.565613,137.195892 321.800720,129.424362 
	C306.525726,121.384354 290.701904,115.126183 273.406006,113.449768 
	C271.570282,113.271835 268.374115,115.029541 267.797577,116.613190 
	C266.765900,119.447014 269.215729,120.959038 272.060150,121.307632 
	C273.381104,121.469536 274.696228,121.690094 276.006653,121.925140 
	C293.370728,125.039871 309.471130,131.528854 324.391052,140.787109 
	C338.597717,149.602768 350.736084,160.948181 362.131439,173.864548 
	C367.795654,183.281143 373.305176,192.797867 379.274384,202.016983 
	C380.283936,203.576187 383.272614,203.853943 385.346863,204.723740 
	C385.592499,202.842346 386.688507,200.489059 385.948090,199.154877 
	C380.449677,189.246765 374.586578,179.541031 368.456360,169.261581 
M124.044250,366.693817 
	C125.078117,367.606506 126.111984,368.519226 127.560257,369.990631 
	C130.656494,372.864349 133.752747,375.738098 136.997360,379.231445 
	C150.501205,390.800598 165.458389,400.201630 181.913391,406.742920 
	C196.719284,412.628632 212.001434,417.207886 228.010696,419.143951 
	C234.867294,419.973206 237.925598,416.471954 240.730637,411.841583 
	C237.989029,406.261261 233.049347,405.666260 228.000397,404.968658 
	C200.779510,401.207672 176.076324,391.172852 153.939987,374.878723 
	C149.927277,371.925018 146.025269,368.820953 141.708282,365.247650 
	C134.516434,357.441895 126.516327,350.219360 120.349953,341.673645 
	C113.579605,332.290924 108.487579,321.695526 102.686951,311.615479 
	C100.127007,307.166901 96.893959,305.617004 93.437889,307.262970 
	C89.558014,309.110840 88.318985,312.761353 90.914833,317.319458 
	C97.563461,328.993927 104.266045,340.659637 111.542763,351.944733 
	C114.892845,357.140198 119.637543,361.436401 124.044250,366.693817 
M412.915466,193.067535 
	C412.794891,192.423309 412.771576,191.741592 412.539673,191.140305 
	C403.021698,166.458313 388.457336,145.390060 368.529724,127.832291 
	C350.162323,111.649216 330.063354,98.539352 306.556702,91.458527 
	C294.629120,87.865616 282.292633,85.560883 270.053040,83.114037 
	C266.269592,82.357674 260.439606,87.896690 261.183197,91.184151 
	C262.086304,95.176765 265.546112,96.382927 269.354523,97.058243 
	C278.559937,98.690552 288.001373,99.714577 296.835297,102.569336 
	C315.558868,108.620041 333.708405,116.479111 348.676727,129.548920 
	C360.322968,139.717987 371.908142,150.366241 381.405731,162.462006 
	C389.535248,172.815445 394.662262,185.526428 401.382538,197.817230 
	C401.425446,199.263702 401.431305,200.712433 401.518463,202.156235 
	C401.749939,205.991669 403.480286,209.308746 407.190765,210.063934 
	C409.749359,210.584686 413.610901,210.102234 415.224030,208.445679 
	C417.064056,206.556122 417.916779,202.759003 417.575531,199.990952 
	C417.302734,197.777817 414.599609,195.864273 412.915466,193.067535 
M393.914185,346.410614 
	C410.802612,322.682465 419.435272,295.923126 422.430756,267.240570 
	C422.650757,265.134338 419.606415,262.413269 417.570282,260.528290 
	C417.026825,260.025146 414.509949,261.400970 413.047760,262.189789 
	C408.574371,264.603088 408.480042,269.070312 408.000336,273.353760 
	C405.977081,291.420624 400.209534,308.337006 391.456757,324.152008 
	C386.896423,332.391815 381.335205,340.080017 376.179138,347.986755 
	C373.810150,351.619568 374.870544,355.274353 379.228851,358.505066 
	C383.146515,361.409180 385.148651,359.061310 387.157867,355.938934 
	C389.132874,352.869781 391.381439,349.976624 393.914185,346.410614 
M121.126938,156.342377 
	C115.889580,149.223618 113.225960,149.104080 107.822548,155.755707 
	C107.511200,156.138977 107.231522,156.557266 106.995316,156.990982 
	C101.312363,167.425247 95.151268,177.634079 90.081810,188.358810 
	C83.483376,202.318176 79.948540,217.297501 78.056961,232.602921 
	C77.491447,237.178741 81.902168,243.575699 84.237480,242.210297 
	C87.735893,240.164902 92.352539,236.450577 92.654778,233.099808 
	C94.655350,210.920456 101.760139,190.717865 113.430290,171.908447 
	C116.405609,167.112961 118.804497,161.959824 121.126938,156.342377 
M351.859772,388.336456 
	C354.647888,386.534454 357.548737,384.878540 360.167542,382.857208 
	C361.186035,382.071045 362.453705,379.925049 362.086853,379.318573 
	C360.513519,376.717651 358.762299,373.829346 356.296967,372.308777 
	C354.781128,371.373810 351.238007,371.930939 349.663452,373.166626 
	C335.620453,384.187256 319.734711,391.555603 303.084930,397.529877 
	C298.213043,399.278015 297.707581,401.365753 299.740540,407.862061 
	C301.279175,412.778656 304.588776,411.418701 307.763245,410.444000 
	C323.459320,405.624420 337.908295,398.277710 351.859772,388.336456 
M94.980011,290.080231 
	C94.618240,285.815094 94.547470,281.499756 93.822411,277.297302 
	C92.876839,271.816681 93.704391,265.431549 87.735252,262.025513 
	C86.295029,261.203705 83.659233,260.455322 82.733360,261.171997 
	C80.764389,262.696045 78.109917,265.339935 78.292076,267.285492 
	C79.024307,275.105743 80.708664,282.838715 82.089142,290.595367 
	C82.588997,293.403961 84.352348,294.650879 87.103088,293.820770 
	C89.733757,293.026886 92.264030,291.900299 94.980011,290.080231 
M243.428543,163.970795 
	C245.317734,164.991302 247.206924,166.011826 249.939789,167.488083 
	C248.406815,161.886627 250.140213,159.278976 254.370728,158.038681 
	C255.526306,157.699890 256.571472,156.926620 257.575134,156.221558 
	C257.670105,156.154846 257.044525,154.633804 256.852203,154.655670 
	C255.503433,154.809158 254.152466,155.102493 252.854889,155.516312 
	C249.401733,156.617615 245.975159,157.802231 242.538010,158.953705 
	C242.289139,158.523468 242.040268,158.093246 241.791412,157.663025 
	C243.078201,156.306442 244.365005,154.949860 245.637512,153.608337 
	C240.972641,148.856171 227.387787,148.130707 225.115143,152.479202 
	C218.033432,149.471298 217.097626,150.221313 215.473358,160.205078 
	C219.788635,162.607361 223.861038,164.367554 228.392822,160.063065 
	C229.633652,158.884445 232.886841,159.105835 234.940384,159.677246 
	C237.715576,160.449463 240.224060,162.180206 243.428543,163.970795 
M358.735962,328.059174 
	C357.276978,329.976166 355.741669,331.840668 354.378876,333.823761 
	C352.777222,336.154572 351.590790,338.822662 349.741058,340.917847 
	C347.448303,343.514893 344.350647,345.432678 342.235077,348.139648 
	C341.369141,349.247620 341.482605,352.267944 342.403046,353.287048 
	C343.243439,354.217529 345.927094,354.081207 347.517578,353.559235 
	C348.959656,353.085999 349.908936,351.288849 351.274719,350.372253 
	C355.451202,347.569183 359.586090,344.653809 364.002472,342.274658 
	C367.506622,340.386902 369.771332,336.568054 368.675201,332.855438 
	C367.441498,328.676941 364.126312,326.860596 358.735962,328.059174 
M314.659912,231.730972 
	C319.195251,229.728775 321.504089,226.175522 320.365173,221.383453 
	C319.325592,217.009277 316.096283,214.325317 311.409393,213.986481 
	C306.706238,213.646439 303.903381,216.281586 302.441132,220.406769 
	C300.039429,227.181992 305.320679,232.458405 314.659912,231.730972 
M237.460632,85.836952 
	C234.174301,80.963684 229.311234,83.243965 225.133560,83.427513 
	C219.258438,83.685638 219.486084,84.002769 219.917603,92.278938 
	C220.160110,96.929710 222.326920,97.863274 226.354965,97.161919 
	C228.632141,96.765419 231.208542,97.349045 233.247910,96.511612 
	C235.806686,95.460869 238.326569,93.715012 240.066635,91.610512 
	C240.642136,90.914474 238.749405,88.177635 237.460632,85.836952 
M422.982666,231.917282 
	C421.030548,226.641968 417.991974,224.300247 414.141479,225.103745 
	C410.447266,225.874619 407.079651,229.965714 408.176361,233.603622 
	C408.966003,236.223007 411.061981,238.895966 413.324188,240.465866 
	C414.818268,241.502731 418.576324,241.527359 419.657135,240.404251 
	C421.466736,238.523773 421.947723,235.364700 422.982666,231.917282 
M304.101807,370.475861 
	C299.986237,372.187897 295.666992,373.550018 291.848724,375.772736 
	C290.164276,376.753357 288.319702,379.699707 288.629456,381.366852 
	C289.162292,384.234680 291.983490,384.435944 294.681580,383.347534 
	C298.506927,381.804382 302.562256,380.723907 306.167328,378.789642 
	C307.840424,377.891937 308.683746,375.447601 309.903229,373.704407 
	C308.207672,372.532990 306.512146,371.361603 304.101807,370.475861 
M209.588120,125.677902 
	C210.638306,121.751755 210.008240,117.971481 206.120728,116.439720 
	C203.249023,115.308197 199.430756,114.860039 197.298676,118.576561 
	C195.402069,121.882599 195.017624,125.088623 198.417648,127.854446 
	C202.018021,130.783234 204.719177,130.424332 209.588120,125.677902 
M107.925949,232.868408 
	C112.197449,233.430878 115.583511,231.607300 115.668892,227.449158 
	C115.718636,225.026566 113.516884,221.531677 111.335655,220.347702 
	C108.577255,218.850433 105.160423,219.983795 103.720222,223.655899 
	C102.136528,227.693848 103.299957,230.667068 107.925949,232.868408 
M385.425934,227.784592 
	C388.239594,232.278320 391.283783,233.078949 395.101074,230.329269 
	C397.787872,228.393921 398.581055,223.675507 395.896881,221.329010 
	C394.217316,219.860718 390.238770,218.559586 389.110748,219.460617 
	C387.067383,221.092850 386.383301,224.426727 385.425934,227.784592 
M329.067841,359.347198 
	C327.211761,359.123260 325.121155,358.244568 323.547302,358.808441 
	C320.011993,360.074982 318.673859,364.461426 320.379547,367.532318 
	C322.040558,370.522766 326.056213,371.471710 329.028900,369.576324 
	C332.555878,367.327423 332.762146,364.107544 329.067841,359.347198 
M214.485245,384.954193 
	C214.622391,382.612793 215.444138,379.970825 214.604462,378.058289 
	C214.191879,377.118561 210.228745,376.720734 208.749161,377.582672 
	C207.527588,378.294250 206.735764,381.516632 207.282166,383.098328 
	C208.239075,385.868256 210.825287,386.811584 214.485245,384.954193 
M224.595490,119.684723 
	C226.461334,122.249763 229.004959,122.966263 231.363403,120.951134 
	C232.559250,119.929367 233.676514,116.902451 233.073624,116.098366 
	C231.919983,114.559685 229.444977,113.047310 227.638901,113.178909 
	C224.618134,113.399010 223.328201,115.851028 224.595490,119.684723 
M269.208679,217.934662 
	C269.620667,216.793564 270.032623,215.652451 270.444611,214.511353 
	C269.413605,214.167923 268.091736,213.264633 267.420319,213.613403 
	C266.433960,214.125824 265.912292,215.532776 265.192657,216.558640 
	C266.273499,217.033768 267.354340,217.508881 269.208679,217.934662 
M182.312195,144.481140 
	C181.975189,145.024658 181.638184,145.568161 181.301178,146.111664 
	C181.573975,146.245605 181.846786,146.379532 182.119583,146.513474 
	C182.323654,145.981247 182.527725,145.449005 182.312195,144.481140 
z"/>
<path fill="#F8FBFC" opacity="1.000000" stroke="none" 
	d="
M267.964722,357.011688 
	C267.964722,336.937805 267.964722,316.863953 267.964722,296.132507 
	C275.007355,296.132507 282.476532,294.721130 289.009521,296.587250 
	C294.069672,298.032654 297.989532,303.541901 302.350739,307.320251 
	C303.720917,308.507324 304.878693,309.939636 305.906921,311.611511 
	C304.099182,312.682770 302.518158,313.402252 300.516327,314.062592 
	C293.858459,314.387146 287.621429,314.770782 280.716766,315.195496 
	C281.045044,317.878479 281.472198,321.369873 281.899384,324.861267 
	C281.387024,326.866608 280.448853,328.868286 280.431396,330.877930 
	C280.317657,343.958862 281.361816,344.946625 294.339325,344.975159 
	C312.880890,345.015930 328.028625,333.395935 333.027466,315.522247 
	C333.418518,314.124023 334.905731,312.491669 336.263153,311.984680 
	C360.714233,302.852264 371.886810,279.265137 363.565430,254.210999 
	C363.134155,252.912460 363.035919,251.204895 363.498566,249.952164 
	C371.810547,227.443878 359.864655,205.235123 341.498230,197.345383 
	C340.207001,196.790710 339.216583,194.795197 338.711761,193.263535 
	C332.775421,175.252350 320.775024,164.300201 301.986359,160.651810 
	C298.805023,160.034058 295.779694,157.839935 293.034698,155.880432 
	C280.385040,146.850510 267.164612,144.285873 252.767654,151.530807 
	C251.837036,151.999130 250.221985,151.766876 249.194870,151.285416 
	C232.852982,143.625381 218.292267,147.340958 204.531845,157.773666 
	C202.076782,159.635010 198.854370,160.925568 195.804825,161.478043 
	C186.937149,163.084518 179.993408,167.670944 173.977356,174.493561 
	C173.884583,174.827026 173.862854,174.770584 173.594040,174.853317 
	C173.136932,175.245132 172.948654,175.554199 172.821762,175.870972 
	C172.883163,175.878677 172.848724,175.759796 172.602859,175.873932 
	C172.195862,176.307709 172.034744,176.627335 171.914001,176.961548 
	C171.954407,176.976135 171.929871,176.893784 171.608856,177.023254 
	C168.533798,182.423279 165.871719,187.745148 162.975586,192.936432 
	C161.965622,194.746826 160.596680,196.496643 159.012650,197.820709 
	C154.418915,201.660522 149.632935,205.270340 144.635330,209.098511 
	C143.822372,210.118683 143.296463,211.010773 142.488800,212.072479 
	C141.376999,213.792282 140.546951,215.342484 139.474915,217.055206 
	C139.073257,217.773697 138.913605,218.329681 138.753952,218.885666 
	C133.797592,228.680695 134.501770,238.719147 137.258560,248.927826 
	C137.775940,250.843719 137.896225,253.166794 137.322281,255.031982 
	C129.886871,279.195648 141.121048,302.623383 164.637527,312.015289 
	C166.150055,312.619354 167.771912,314.286957 168.299133,315.819031 
	C175.568268,336.942261 193.639481,347.807617 215.941101,344.283936 
	C217.087082,344.102875 218.268173,343.946686 219.418198,344.017578 
	C239.361450,345.246796 238.293243,343.156372 251.297897,336.610107 
	C251.297897,343.989594 251.297897,351.054321 250.717255,358.597473 
	C226.534195,360.351074 203.954315,356.293640 182.453506,346.321289 
	C177.402771,343.978699 172.128387,342.118286 166.956894,340.036041 
	C166.956894,340.036041 167.001602,340.002014 167.008774,339.676727 
	C166.061981,338.868591 165.108017,338.385742 164.154053,337.902893 
	C141.057465,318.992371 126.964142,294.948578 123.012741,265.235992 
	C122.454155,261.035675 120.975800,258.709229 116.463722,259.065277 
	C112.180626,259.403290 107.885994,259.595306 103.602997,259.934387 
	C99.920769,260.225891 96.578529,259.763092 94.491447,256.240723 
	C92.311745,252.562057 92.154274,248.327896 95.077049,245.607941 
	C97.258598,243.577728 101.113945,242.795837 104.310913,242.538406 
	C108.893867,242.169403 113.554993,242.904587 118.184769,242.947006 
	C123.114616,242.992203 121.311012,238.007950 123.270302,235.073822 
	C123.218407,233.912582 123.165398,233.479309 123.403366,232.927032 
	C123.772003,232.205978 123.849663,231.603943 124.080849,230.719330 
	C124.411484,229.613876 124.588593,228.791016 124.907379,227.606842 
	C127.128853,221.234070 129.208649,215.222610 131.220428,209.154541 
	C131.152405,209.097931 131.232956,209.255508 131.505737,209.044006 
	C132.580521,206.929260 133.382553,205.026001 134.125824,203.100311 
	C134.067062,203.077881 134.141052,203.179596 134.411896,203.004471 
	C134.788437,202.219315 134.894135,201.609283 135.089203,200.832367 
	C135.178574,200.665482 135.109146,200.293289 135.427216,200.121796 
	C144.316513,188.843216 152.887741,177.736115 161.491211,166.576721 
	C161.523468,166.524429 161.638077,166.480103 161.912735,166.327271 
	C163.897873,164.556290 165.608353,162.938126 167.318756,161.307556 
	C167.318665,161.295135 167.342728,161.311478 167.342728,161.311478 
	C181.671402,150.671616 196.463501,140.807266 214.143295,136.649307 
	C222.040207,134.792099 230.118301,133.604340 238.172440,132.563660 
	C241.667221,132.112122 243.315109,131.050125 243.063416,127.365379 
	C242.624191,120.935844 241.910294,114.462769 242.292343,108.066521 
	C242.475266,105.004250 244.196869,101.127121 246.536545,99.386642 
	C248.416397,97.988213 252.595184,98.469543 255.179764,99.523964 
	C258.706970,100.962952 259.535583,104.644569 259.237701,108.421272 
	C258.796204,114.019707 258.284515,119.621140 258.119690,125.230614 
	C257.928375,131.742813 258.517334,132.363358 265.006744,132.813110 
	C284.166840,134.141006 301.669617,140.358337 317.837799,150.537476 
	C350.298523,170.974014 371.016418,199.562012 378.019653,237.591446 
	C378.705750,241.316940 380.541229,243.234909 384.419006,242.988846 
	C388.879181,242.705841 393.412720,241.870010 397.779236,242.396011 
	C400.902191,242.772217 405.048126,244.250656 406.454987,246.602646 
	C407.885162,248.993576 407.601318,253.747726 406.051117,256.183289 
	C404.675354,258.344818 400.599182,259.481049 397.596893,259.749664 
	C393.206970,260.142395 388.710236,259.373566 384.261414,259.065582 
	C380.244873,258.787506 378.559509,260.931000 378.150940,264.652863 
	C376.129242,283.069794 369.326721,299.632812 357.998047,314.780640 
	C355.847046,315.871643 354.214386,316.711548 352.844086,317.863556 
	C333.622925,334.022888 312.481812,346.640228 287.718872,353.250977 
	C280.926971,354.542236 274.445862,355.776978 267.964722,357.011688 
z"/>
<path fill="#F9FCFC" opacity="1.000000" stroke="none" 
	d="
M238.336548,311.422211 
	C240.025116,304.311829 238.690994,300.736938 233.571609,298.654297 
	C228.875687,296.743958 223.559265,298.224579 222.022018,303.026947 
	C221.057770,306.039276 222.459473,309.808929 222.485840,313.684570 
	C217.568985,313.723511 212.965912,313.316711 208.359924,312.447632 
	C208.365280,305.670166 207.916428,299.313202 208.489166,293.049652 
	C209.344421,283.696106 207.939316,275.648346 199.179672,270.364258 
	C198.086121,269.704620 197.143341,268.585663 196.484589,267.470490 
	C195.751587,266.229584 194.936417,264.723114 195.009125,263.378296 
	C195.243561,259.042328 193.472122,255.936401 189.780090,254.004898 
	C186.055191,252.056183 182.441650,252.476196 179.143875,255.238617 
	C178.310822,255.936462 177.292496,256.847992 176.328735,256.886017 
	C168.726898,257.185791 162.008148,255.490158 156.875046,249.107925 
	C149.573395,240.029358 148.885849,223.406067 164.456329,213.001175 
	C167.210373,211.960922 169.609528,210.958435 172.449341,210.002930 
	C175.464127,210.049942 178.038223,210.049942 181.151215,210.049942 
	C180.315826,207.890930 179.742630,206.409561 179.212860,204.598206 
	C179.144424,203.841476 179.032562,203.414749 178.991669,202.578369 
	C179.017395,189.223206 190.804352,177.326004 203.786636,178.795486 
	C205.243362,178.960373 206.858475,177.725845 208.597229,177.094696 
	C209.049866,176.885559 209.160385,176.653015 209.403961,176.165619 
	C209.837204,175.335419 209.992325,174.691132 210.099274,174.042450 
	C210.051086,174.038055 210.061081,174.134308 210.334625,174.050507 
	C210.830017,173.675125 211.051880,173.383545 211.489288,173.020416 
	C211.946564,172.731796 212.063385,172.460876 212.055267,172.136078 
	C217.448792,166.510757 223.898849,163.529526 231.831955,164.000595 
	C242.546509,164.636795 250.934235,172.903610 251.235870,183.640259 
	C251.460052,191.620010 251.361282,199.614578 251.142395,207.595306 
	C251.106598,208.900513 250.010681,210.616562 248.886688,211.385437 
	C234.140564,221.472549 234.076981,239.991470 248.739151,249.912277 
	C249.961182,250.739136 251.158737,252.651031 251.164703,254.063904 
	C251.223816,268.037018 251.028809,282.011200 250.499344,296.475403 
	C246.174118,301.784576 242.255325,306.603394 238.336548,311.422211 
M218.991699,244.950104 
	C217.223618,235.156372 220.620865,227.507339 228.546997,221.668427 
	C230.010086,220.590591 231.190170,219.136917 232.592041,217.965851 
	C235.461746,215.568634 236.628860,212.723129 236.469040,208.838272 
	C236.221268,202.816071 235.217789,196.609070 239.115234,191.034058 
	C239.974945,189.804291 240.125000,186.999451 239.299179,185.886475 
	C237.353745,183.264618 234.982010,180.364792 232.118225,179.169479 
	C228.559448,177.684052 224.836472,179.363266 222.536591,182.720245 
	C220.194168,186.139297 219.947708,189.809799 222.083191,193.527695 
	C225.335632,199.190231 224.173157,207.040649 220.387070,212.244675 
	C214.746384,219.997894 208.007355,224.075348 198.036926,222.489746 
	C191.116058,221.389114 183.982025,223.417389 177.008667,220.199966 
	C173.239380,218.460861 169.143204,220.663467 167.024582,224.738754 
	C164.884995,228.854370 165.213120,232.907959 168.485641,236.256866 
	C171.250946,239.086685 174.986313,240.441162 178.473755,238.171539 
	C187.340286,232.401230 196.765656,236.734909 206.224884,235.114914 
	C206.224884,239.730072 206.476486,243.406143 206.158875,247.032364 
	C205.791931,251.221710 207.587906,253.957489 210.235031,257.099976 
	C215.540207,263.397919 223.299835,265.456268 229.803955,269.585693 
	C234.286591,272.431671 239.629150,269.192139 241.557938,263.765564 
	C243.298111,258.869598 240.989807,253.208054 236.022995,252.193344 
	C232.774261,251.529633 229.172409,252.594376 224.134598,253.019440 
	C223.102783,251.572891 221.049210,248.693863 218.991699,244.950104 
z"/>
<path fill="#FAFCFC" opacity="1.000000" stroke="none" 
	d="
M280.900696,237.000397 
	C280.957520,233.699097 280.982391,230.396881 281.077606,227.096680 
	C281.298279,219.447052 275.661560,215.759781 270.769501,211.454788 
	C269.407501,210.256210 268.007568,208.295441 267.910309,206.610153 
	C267.565338,200.632996 267.749359,194.623611 267.782837,188.626724 
	C267.825500,180.984955 268.481140,173.249191 263.465424,166.544968 
	C273.575134,163.353806 282.572784,166.310287 288.210022,175.185501 
	C290.381195,178.603821 292.548828,179.173859 296.196167,178.997131 
	C311.574188,178.252029 322.459747,188.046997 322.502228,202.737305 
	C314.520203,200.288712 306.231506,198.778442 299.373169,204.417114 
	C295.472229,207.624298 291.953369,212.264587 290.244507,216.978088 
	C286.045258,228.560913 291.715607,237.604340 306.317078,244.656387 
	C306.379913,245.151810 306.469910,245.646713 306.488281,246.144272 
	C307.230377,266.256165 306.563477,267.853333 291.321289,281.103363 
	C290.298767,281.992279 288.762177,282.727936 287.443695,282.763794 
	C281.141968,282.935303 274.833008,282.840698 267.922455,282.840698 
	C267.922455,272.497345 267.856293,262.416595 268.040527,252.340469 
	C268.056274,251.477966 269.736389,250.645859 271.178223,249.414642 
	C272.815033,248.034836 273.917023,247.040039 275.330658,245.916595 
	C276.956818,243.931442 278.271362,242.074936 279.793884,240.002228 
	C280.301453,238.857468 280.601074,237.928925 280.900696,237.000397 
z"/>
<path fill="#000000" opacity="1.000000" stroke="none" 
	d="
M401.117249,197.194702 
	C394.662262,185.526428 389.535248,172.815445 381.405731,162.462006 
	C371.908142,150.366241 360.322968,139.717987 348.676727,129.548920 
	C333.708405,116.479111 315.558868,108.620041 296.835297,102.569336 
	C288.001373,99.714577 278.559937,98.690552 269.354523,97.058243 
	C265.546112,96.382927 262.086304,95.176765 261.183197,91.184151 
	C260.439606,87.896690 266.269592,82.357674 270.053040,83.114037 
	C282.292633,85.560883 294.629120,87.865616 306.556702,91.458527 
	C330.063354,98.539352 350.162323,111.649216 368.529724,127.832291 
	C388.457336,145.390060 403.021698,166.458313 412.539673,191.140305 
	C412.771576,191.741592 412.794891,192.423309 412.537720,193.559082 
	C408.479034,195.098663 404.798157,196.146683 401.117249,197.194702 
z"/>
<path fill="#07364F" opacity="1.000000" stroke="none" 
	d="
M211.913300,171.804260 
	C212.063385,172.460876 211.946564,172.731796 211.218445,173.102188 
	C210.508423,173.548447 210.284760,173.841385 210.061081,174.134308 
	C210.061081,174.134308 210.051086,174.038055 209.808868,174.223907 
	C209.419724,175.057007 209.272781,175.704254 209.125839,176.351517 
	C209.160385,176.653015 209.049866,176.885559 208.166275,177.058105 
	C205.805817,176.668259 204.088150,176.173248 202.335770,175.904297 
	C201.158585,175.723618 199.803329,175.520096 198.749405,175.916367 
	C193.031021,178.066406 187.381653,180.399994 181.617203,182.706909 
	C181.265350,183.959244 180.421844,185.947342 180.185257,188.005203 
	C179.613037,192.982147 179.323929,197.991638 178.920700,202.988007 
	C179.032562,203.414749 179.144424,203.841476 178.921600,204.807663 
	C176.394180,206.883392 174.201431,208.419662 172.008667,209.955933 
	C169.609528,210.958435 167.210373,211.960922 164.045105,212.989822 
	C160.811172,214.281952 157.455307,214.914749 156.025833,216.920486 
	C148.987106,226.796677 148.068130,237.198700 153.549835,248.458771 
	C156.842514,255.222321 161.622803,257.882233 168.710907,258.112885 
	C170.795883,258.180756 172.859100,259.542816 174.893600,260.403168 
	C178.889114,262.092804 182.857483,263.846588 185.788101,265.118561 
	C188.003555,262.802582 189.457611,260.206848 190.532776,260.355286 
	C194.112671,260.849518 192.887802,263.964508 192.735107,266.340393 
	C192.724808,266.500763 192.545898,266.693787 192.594666,266.807770 
	C193.125168,268.047791 193.372147,269.636414 194.296478,270.438049 
	C197.064575,272.838593 200.287323,274.734863 202.924088,277.255310 
	C203.768372,278.062347 203.715118,280.315796 203.302521,281.673462 
	C203.143707,282.196075 200.503693,282.655853 199.579514,282.125092 
	C196.809601,280.534302 194.280411,278.502380 191.746033,276.528625 
	C187.855545,273.498718 184.475922,269.004028 180.090347,267.605255 
	C173.250610,265.423767 165.749832,265.314941 158.529160,264.327820 
	C158.765030,263.864471 159.000900,263.401123 159.236755,262.937775 
	C158.048523,261.420563 156.572617,258.471252 155.723419,258.641876 
	C152.579758,259.273346 149.642914,260.934326 146.302048,262.346344 
	C146.358765,262.113312 146.134354,262.485291 146.229324,262.736572 
	C146.754303,264.125488 147.511154,265.443817 147.891388,266.865784 
	C148.300095,268.394318 148.891953,270.148987 148.509720,271.563293 
	C147.272186,276.142456 147.988358,277.398926 152.950500,278.215271 
	C152.980576,278.426880 153.051575,278.848419 153.131805,279.097748 
	C153.474838,279.567078 153.737656,279.787109 154.003143,280.327454 
	C154.013138,281.074890 154.020493,281.501923 154.018341,282.378723 
	C154.006424,283.972870 154.006912,285.117310 154.001129,286.261719 
	C153.979324,290.571686 155.832596,291.124084 159.368195,288.948792 
	C160.117310,289.648102 160.613617,290.214935 161.078674,291.151611 
	C161.436401,293.066071 160.866425,295.775574 164.314087,293.993408 
	C165.085495,294.328033 165.559601,294.635193 165.855591,295.271698 
	C164.507553,296.074097 163.184952,296.341125 162.203568,297.068542 
	C160.742340,298.151550 159.359329,299.440033 158.288818,300.895447 
	C157.921280,301.395142 158.576523,303.444092 158.789703,303.448120 
	C160.519348,303.480713 162.392853,303.548645 163.961365,302.936584 
	C167.734528,301.464294 171.365616,299.627899 175.060791,297.933990 
	C175.067566,297.929565 175.087570,297.903503 175.087555,297.903503 
	C174.010590,299.455994 173.171097,301.275269 171.799240,302.496552 
	C169.890457,304.195831 167.765198,306.014587 165.407990,306.771759 
	C160.558655,308.329468 156.863419,305.784302 153.815109,302.199005 
	C153.174026,301.444977 152.866028,300.328003 152.115540,299.760406 
	C148.695374,297.173737 143.378082,295.304779 148.950317,289.862061 
	C149.036377,289.778015 149.016876,289.525238 148.970306,289.374847 
	C147.203751,283.669708 145.428253,277.967316 143.463181,271.651459 
	C142.376358,272.808105 141.769730,273.471008 141.144119,274.115448 
	C140.258987,275.027191 139.359833,275.925354 138.466690,276.829315 
	C137.979065,275.721252 137.190918,274.645203 137.068817,273.498230 
	C136.842010,271.367920 137.003799,269.196289 137.003799,267.159607 
	C143.766876,264.437592 143.546509,264.446808 142.333298,257.354950 
	C141.377762,251.769302 140.449036,246.309219 137.778549,241.170700 
	C136.793320,239.274887 136.759491,236.549500 137.183136,234.376236 
	C137.458725,232.962433 139.343445,231.862305 140.507263,230.621643 
	C141.019867,230.838531 141.532486,231.055435 142.045090,231.272324 
	C141.138687,227.277267 140.232269,223.282196 139.039917,219.086395 
	C138.913605,218.329681 139.073257,217.773697 139.878510,217.090454 
	C141.680008,218.480835 142.995056,219.906677 143.940384,221.545761 
	C144.669891,222.810654 144.935516,224.343109 145.407379,225.756592 
	C147.949112,220.136353 146.225067,215.788696 142.770554,211.902863 
	C143.296463,211.010773 143.822372,210.118683 145.026688,209.101059 
	C147.369904,208.367538 149.967880,208.220169 150.535324,207.070526 
	C152.796646,202.489304 157.303909,201.848297 161.141708,199.889862 
	C162.674759,199.107498 164.237854,197.559326 164.857849,195.992096 
	C165.986053,193.140274 166.072922,189.863541 167.285217,187.063202 
	C167.920776,185.595078 170.142014,184.881195 171.418625,183.599106 
	C172.280243,182.733826 173.182449,181.501694 173.260345,180.377792 
	C173.338333,179.252609 172.414551,178.057983 171.929871,176.893784 
	C171.929871,176.893784 171.954407,176.976135 172.163864,176.846954 
	C172.531784,176.398438 172.690247,176.079117 172.848724,175.759796 
	C172.848724,175.759796 172.883163,175.878677 173.091827,175.791351 
	C173.487946,175.392883 173.675400,175.081741 173.862854,174.770584 
	C173.862854,174.770584 173.884583,174.827026 173.860550,174.807190 
	C178.853012,176.647110 181.286636,172.692261 183.832306,169.889465 
	C186.720520,166.709518 189.525696,165.204971 193.829071,166.718277 
	C196.127075,167.526382 198.064774,167.090408 199.155441,164.003342 
	C200.484253,160.242157 209.498383,159.080414 212.508774,161.880447 
	C210.581848,163.185257 208.605545,164.523514 206.630234,165.861084 
	C208.797638,168.226761 210.284500,169.849609 211.913300,171.804260 
M145.845322,240.327011 
	C145.465118,240.114227 145.084915,239.901459 144.704742,239.688675 
	C144.507675,242.558380 144.310608,245.428085 144.113541,248.297791 
	C144.732498,248.302872 145.351440,248.307968 145.970383,248.313049 
	C145.970383,245.916260 145.970383,243.519455 145.845322,240.327011 
z"/>
<path fill="#64A2B5" opacity="1.000000" stroke="none" 
	d="
M142.072174,365.786285 
	C146.025269,368.820953 149.927277,371.925018 153.939987,374.878723 
	C176.076324,391.172852 200.779510,401.207672 228.000397,404.968658 
	C233.049347,405.666260 237.989029,406.261261 240.730637,411.841583 
	C237.925598,416.471954 234.867294,419.973206 228.010696,419.143951 
	C212.001434,417.207886 196.719284,412.628632 181.913391,406.742920 
	C165.458389,400.201630 150.501205,390.800598 136.960999,378.468994 
	C137.911621,375.468842 138.910278,373.236145 139.881836,370.991730 
	C140.629639,369.264252 141.343323,367.521973 142.072174,365.786285 
z"/>
<path fill="#65A3B5" opacity="1.000000" stroke="none" 
	d="
M393.712067,346.708435 
	C391.381439,349.976624 389.132874,352.869781 387.157867,355.938934 
	C385.148651,359.061310 383.146515,361.409180 379.228851,358.505066 
	C374.870544,355.274353 373.810150,351.619568 376.179138,347.986755 
	C381.335205,340.080017 386.896423,332.391815 391.456757,324.152008 
	C400.209534,308.337006 405.977081,291.420624 408.000336,273.353760 
	C408.480042,269.070312 408.574371,264.603088 413.047760,262.189789 
	C414.509949,261.400970 417.026825,260.025146 417.570282,260.528290 
	C419.606415,262.413269 422.650757,265.134338 422.430756,267.240570 
	C419.435272,295.923126 410.802612,322.682465 393.712067,346.708435 
z"/>
<path fill="#000000" opacity="1.000000" stroke="none" 
	d="
M121.297585,156.656693 
	C118.804497,161.959824 116.405609,167.112961 113.430290,171.908447 
	C101.760139,190.717865 94.655350,210.920456 92.654778,233.099808 
	C92.352539,236.450577 87.735893,240.164902 84.237480,242.210297 
	C81.902168,243.575699 77.491447,237.178741 78.056961,232.602921 
	C79.948540,217.297501 83.483376,202.318176 90.081810,188.358810 
	C95.151268,177.634079 101.312363,167.425247 106.995316,156.990982 
	C107.231522,156.557266 107.511200,156.138977 107.822548,155.755707 
	C113.225960,149.104080 115.889580,149.223618 121.297585,156.656693 
z"/>
<path fill="#ADCAD6" opacity="1.000000" stroke="none" 
	d="
M167.029663,340.371094 
	C172.128387,342.118286 177.402771,343.978699 182.453506,346.321289 
	C203.954315,356.293640 226.534195,360.351074 250.610779,359.058472 
	C251.082535,366.468842 251.322525,373.717224 258.066437,378.914307 
	C259.070374,379.687927 258.800293,382.309570 258.851013,384.083954 
	C258.950897,387.580536 258.980560,391.087769 258.825134,394.581055 
	C258.568481,400.350555 255.250748,403.921173 250.455078,403.826355 
	C245.811508,403.734589 242.431641,399.797546 242.426453,394.161438 
	C242.420334,387.497559 242.620956,380.833588 242.696838,374.169281 
	C242.709824,373.027863 242.547348,371.884460 242.419327,370.087860 
	C214.116516,368.422668 189.068222,358.417358 167.029663,340.371094 
z"/>
<path fill="#6AA6B9" opacity="1.000000" stroke="none" 
	d="
M141.890228,365.516968 
	C141.343323,367.521973 140.629639,369.264252 139.881836,370.991730 
	C138.910278,373.236145 137.911621,375.468842 136.886810,378.159180 
	C133.752747,375.738098 130.656494,372.864349 127.740646,369.518463 
	C129.614014,367.697510 131.307007,366.348755 133.033112,365.325256 
	C133.708862,366.352692 134.351501,367.054901 134.994141,367.757080 
	C135.296616,367.338013 135.599075,366.918976 135.901550,366.499908 
	C134.934372,365.999939 133.967178,365.499969 132.961395,364.645996 
	C129.964706,360.101776 129.042984,360.041443 126.120247,363.730499 
	C125.424553,364.608612 124.544914,365.341003 123.749878,366.140381 
	C119.637543,361.436401 114.892845,357.140198 111.542763,351.944733 
	C104.266045,340.659637 97.563461,328.993927 90.914833,317.319458 
	C88.318985,312.761353 89.558014,309.110840 93.437889,307.262970 
	C96.893959,305.617004 100.127007,307.166901 102.686951,311.615479 
	C108.487579,321.695526 113.579605,332.290924 120.349953,341.673645 
	C126.516327,350.219360 134.516434,357.441895 141.890228,365.516968 
z"/>
<path fill="#F2F8F9" opacity="1.000000" stroke="none" 
	d="
M362.055267,173.185425 
	C350.736084,160.948181 338.597717,149.602768 324.391052,140.787109 
	C309.471130,131.528854 293.370728,125.039871 276.006653,121.925140 
	C274.696228,121.690094 273.381104,121.469536 272.060150,121.307632 
	C269.215729,120.959038 266.765900,119.447014 267.797577,116.613190 
	C268.374115,115.029541 271.570282,113.271835 273.406006,113.449768 
	C290.701904,115.126183 306.525726,121.384354 321.800720,129.424362 
	C336.565613,137.195892 348.862518,148.061172 360.670105,159.560074 
	C363.618530,162.431427 365.879456,166.008728 368.284790,169.549194 
	C366.093903,170.953003 364.074585,172.069214 362.055267,173.185425 
z"/>
<path fill="#67A3B5" opacity="1.000000" stroke="none" 
	d="
M351.565247,388.549561 
	C337.908295,398.277710 323.459320,405.624420 307.763245,410.444000 
	C304.588776,411.418701 301.279175,412.778656 299.740540,407.862061 
	C297.707581,401.365753 298.213043,399.278015 303.084930,397.529877 
	C319.734711,391.555603 335.620453,384.187256 349.663452,373.166626 
	C351.238007,371.930939 354.781128,371.373810 356.296967,372.308777 
	C358.762299,373.829346 360.513519,376.717651 362.086853,379.318573 
	C362.453705,379.925049 361.186035,382.071045 360.167542,382.857208 
	C357.548737,384.878540 354.647888,386.534454 351.565247,388.549561 
z"/>
<path fill="#F8FBFC" opacity="1.000000" stroke="none" 
	d="
M339.943878,260.900543 
	C333.756012,260.061279 327.568176,259.221985 320.844879,258.310089 
	C320.844879,253.959747 320.759949,249.182800 320.917419,244.413879 
	C320.948456,243.473450 321.707062,242.312714 322.479034,241.677811 
	C333.644623,232.494705 335.370758,225.724960 330.050629,211.497116 
	C340.304443,211.903198 348.489716,223.315887 349.127045,231.255692 
	C349.608917,237.258926 348.429901,242.739777 345.741913,248.098145 
	C345.042206,249.492996 345.681702,251.559662 345.425476,253.588928 
	C339.022736,254.690216 337.240936,257.102234 339.943878,260.900543 
z"/>
<path fill="#000000" opacity="1.000000" stroke="none" 
	d="
M178.063110,111.931747 
	C177.159271,112.882416 176.430511,114.294441 175.325119,114.713936 
	C160.796539,120.227386 150.407516,131.715637 138.073669,140.382095 
	C137.283646,140.937210 136.675079,141.802826 136.105377,142.610931 
	C131.839310,148.662186 125.789948,148.674423 122.052284,142.257965 
	C121.307961,140.980194 121.924629,137.719849 123.080452,136.712814 
	C132.532745,128.477249 142.001129,120.213020 152.008621,112.680214 
	C157.620560,108.456017 164.263885,105.602058 171.134308,102.158371 
	C173.905090,105.434601 175.984100,108.683174 178.063110,111.931747 
z"/>
<path fill="#ACCCD7" opacity="1.000000" stroke="none" 
	d="
M280.837006,365.940765 
	C280.771301,381.257172 280.526276,396.576172 280.748810,411.888397 
	C280.815826,416.497925 279.319397,418.117981 274.830566,418.961761 
	C267.822540,420.279114 263.238464,418.070831 260.390900,411.211578 
	C261.136719,410.225250 262.410583,409.070282 263.020081,407.633484 
	C264.725006,403.614197 267.211182,399.547424 267.484070,395.374817 
	C268.145569,385.260254 267.726074,375.074951 268.246948,364.505951 
	C272.780151,364.709412 276.808563,365.325104 280.837006,365.940765 
z"/>
<path fill="#093650" opacity="1.000000" stroke="none" 
	d="
M124.765709,227.968140 
	C124.588593,228.791016 124.411484,229.613876 123.788574,230.756622 
	C123.265984,231.733002 123.189178,232.389526 123.112381,233.046051 
	C123.165398,233.479309 123.218407,233.912582 123.203842,234.670441 
	C122.141289,235.958038 121.164398,236.940659 120.146385,237.878647 
	C119.082077,238.859253 117.978226,239.796936 116.891663,240.753387 
	C116.261749,239.365662 114.916557,237.849304 115.138557,236.614777 
	C115.757622,233.172287 117.284332,229.897415 117.961296,226.459610 
	C118.560555,223.416443 118.876633,220.286942 114.850357,218.647644 
	C113.589050,218.134094 113.023956,215.910599 112.140182,214.469803 
	C113.541451,214.191956 114.982582,213.553864 116.336517,213.703705 
	C120.431641,214.156937 122.480072,212.885544 121.288147,207.904755 
	C121.027588,206.887833 121.027412,206.442291 121.247688,205.867371 
	C121.627861,205.442749 121.787582,205.147507 121.978020,204.640610 
	C122.008736,204.428955 122.059357,204.004211 122.425125,203.996704 
	C124.527267,201.659882 126.263634,199.330551 128.352051,196.941284 
	C131.605438,195.451401 132.363892,192.995148 131.999390,190.001053 
	C134.774780,184.057938 137.950150,178.724121 144.956009,176.596725 
	C146.896774,176.007385 148.104340,173.003555 150.002365,170.672714 
	C146.104477,168.848801 139.248871,178.381851 138.323746,167.456573 
	C142.610565,167.169983 146.662277,166.899109 150.713989,166.628235 
	C150.767136,166.982803 150.820282,167.337372 150.873428,167.691940 
	C152.203522,166.518600 153.682144,165.472244 154.823410,164.137451 
	C156.051682,162.700912 157.005783,161.019745 157.999741,159.396484 
	C158.746658,158.176682 159.500320,155.730652 160.024414,155.791229 
	C166.805313,156.574814 167.900543,149.844223 171.749420,146.909973 
	C175.383987,144.139099 177.409943,144.548218 180.458633,148.600632 
	C178.000732,150.181686 175.865112,151.805237 173.513947,153.007187 
	C170.276901,154.662033 167.546997,156.562805 167.277283,160.935364 
	C167.342728,161.311478 167.318665,161.295135 166.917755,161.215729 
	C162.719223,160.935165 161.343948,162.945572 161.638077,166.480103 
	C161.638077,166.480103 161.523468,166.524429 161.144455,166.420410 
	C160.013535,166.559631 159.011276,166.573822 158.547485,167.080688 
	C152.198105,174.019791 145.540939,180.731522 139.804688,188.152527 
	C137.261108,191.443161 136.616013,196.201294 135.109146,200.293289 
	C135.109146,200.293289 135.178574,200.665482 134.837357,201.021301 
	C134.377777,201.977951 134.259415,202.578781 134.141052,203.179596 
	C134.141052,203.179596 134.067062,203.077881 133.747925,203.065979 
	C127.841820,203.402145 132.204865,207.273331 131.232956,209.255508 
	C131.232956,209.255508 131.152405,209.097931 130.849991,209.134705 
	C128.302536,213.506348 125.784546,217.730820 123.962524,222.236725 
	C123.336197,223.785675 124.447975,226.037445 124.765709,227.968140 
z"/>
<path fill="#9BC2CE" opacity="1.000000" stroke="none" 
	d="
M288.029602,353.194458 
	C312.481812,346.640228 333.622925,334.022888 352.844086,317.863556 
	C354.214386,316.711548 355.847046,315.871643 357.716980,314.960144 
	C353.433502,320.797516 349.277649,327.052277 344.055359,332.231873 
	C329.172424,346.993378 311.515442,357.335541 290.652588,363.154083 
	C289.003601,363.394836 288.079102,363.818359 287.154602,364.241913 
	C287.154602,364.241913 287.070496,364.178772 286.755737,364.084412 
	C282.076050,360.626587 282.104034,359.518066 286.246887,356.276825 
	C287.114136,355.598297 287.449249,354.239685 288.029602,353.194458 
z"/>
<path fill="#000000" opacity="1.000000" stroke="none" 
	d="
M161.109940,290.781769 
	C160.613617,290.214935 160.117310,289.648102 159.186340,288.672302 
	C157.177063,286.151855 155.602463,284.040436 154.027847,281.928986 
	C154.020493,281.501923 154.013138,281.074890 153.955719,280.060974 
	C153.620956,279.265564 153.336273,279.057007 153.051575,278.848419 
	C153.051575,278.848419 152.980576,278.426880 152.959351,277.804504 
	C152.670731,273.827454 152.403336,270.472778 152.483276,267.170776 
	C155.132370,271.223511 156.993561,275.573212 159.831055,279.147980 
	C165.123245,285.815247 172.651367,288.589325 181.080948,289.263092 
	C181.464691,295.861603 184.446442,300.846588 189.334793,304.861053 
	C191.925323,306.988464 194.319641,309.354797 196.834854,311.954346 
	C197.221832,313.127991 197.576492,313.960510 197.661438,314.992462 
	C198.203812,319.490723 200.970520,321.164825 205.111206,322.232452 
	C208.252548,323.042389 212.764694,322.277008 214.055878,326.948608 
	C207.853378,327.849823 201.436356,329.106049 196.028549,324.894745 
	C192.821320,322.397156 189.682343,319.294128 187.773193,315.778748 
	C185.396332,311.402130 183.961304,306.405548 182.788055,301.516266 
	C181.751022,297.194580 178.748444,298.107941 175.514771,297.942322 
	C175.087570,297.903503 175.067566,297.929565 174.846436,297.630615 
	C171.761444,296.535217 168.897583,295.738770 166.033707,294.942322 
	C165.559601,294.635193 165.085495,294.328033 164.172592,293.718628 
	C162.859177,292.538147 161.984558,291.659973 161.109940,290.781769 
z"/>
<path fill="#F5FAFB" opacity="1.000000" stroke="none" 
	d="
M312.700989,298.781097 
	C309.209381,295.499451 305.717773,292.217834 302.312958,289.017761 
	C307.736115,283.369873 312.060913,276.598755 318.239777,273.134399 
	C323.360565,270.263214 330.729095,270.522125 336.895813,274.898315 
	C336.033783,278.330811 334.989349,281.067566 333.624268,283.949097 
	C328.373993,286.659668 323.637604,290.722992 318.463104,291.390594 
	C312.731750,292.130005 312.664001,294.808502 312.700989,298.781097 
z"/>
<path fill="#000000" opacity="1.000000" stroke="none" 
	d="
M94.909225,290.500092 
	C92.264030,291.900299 89.733757,293.026886 87.103088,293.820770 
	C84.352348,294.650879 82.588997,293.403961 82.089142,290.595367 
	C80.708664,282.838715 79.024307,275.105743 78.292076,267.285492 
	C78.109917,265.339935 80.764389,262.696045 82.733360,261.171997 
	C83.659233,260.455322 86.295029,261.203705 87.735252,262.025513 
	C93.704391,265.431549 92.876839,271.816681 93.822411,277.297302 
	C94.547470,281.499756 94.618240,285.815094 94.909225,290.500092 
z"/>
<path fill="#05344E" opacity="1.000000" stroke="none" 
	d="
M243.137756,163.735229 
	C240.224060,162.180206 237.715576,160.449463 234.940384,159.677246 
	C232.886841,159.105835 229.633652,158.884445 228.392822,160.063065 
	C223.861038,164.367554 219.788635,162.607361 215.473389,160.205887 
	C217.097626,150.221313 218.033432,149.471298 225.115143,152.479202 
	C227.387787,148.130707 240.972641,148.856171 245.637512,153.608337 
	C244.365005,154.949860 243.078201,156.306442 241.791412,157.663025 
	C242.040268,158.093246 242.289139,158.523468 242.538010,158.953705 
	C245.975159,157.802231 249.401733,156.617615 252.854889,155.516312 
	C254.152466,155.102493 255.503433,154.809158 256.852203,154.655670 
	C257.044525,154.633804 257.670105,156.154846 257.575134,156.221558 
	C256.571472,156.926620 255.526306,157.699890 254.370728,158.038681 
	C250.140213,159.278976 248.406815,161.886627 249.939789,167.488083 
	C247.206924,166.011826 245.317734,164.991302 243.137756,163.735229 
z"/>
<path fill="#000000" opacity="1.000000" stroke="none" 
	d="
M121.027222,205.996765 
	C121.027412,206.442291 121.027588,206.887833 121.017586,207.667358 
	C118.946213,208.387024 116.885010,208.772675 114.823814,209.158325 
	C114.590790,207.095398 113.503967,204.623718 114.263969,203.036179 
	C119.033073,193.074112 124.066040,183.226913 129.436050,173.577866 
	C130.143509,172.306671 133.267944,172.380615 135.272980,171.831573 
	C135.611938,173.912521 136.788712,176.323303 136.124908,178.009476 
	C134.467163,182.220367 131.973465,186.102158 129.433762,190.572708 
	C128.356277,192.330231 127.660263,193.631042 126.683899,195.130585 
	C124.955482,198.220932 123.507423,201.112564 122.059357,204.004211 
	C122.059357,204.004211 122.008736,204.428955 121.737396,204.753021 
	C121.319786,205.383636 121.173500,205.690201 121.027222,205.996765 
z"/>
<path fill="#A9CAD7" opacity="1.000000" stroke="none" 
	d="
M359.095520,327.931519 
	C364.126312,326.860596 367.441498,328.676941 368.675201,332.855438 
	C369.771332,336.568054 367.506622,340.386902 364.002472,342.274658 
	C359.586090,344.653809 355.451202,347.569183 351.274719,350.372253 
	C349.908936,351.288849 348.959656,353.085999 347.517578,353.559235 
	C345.927094,354.081207 343.243439,354.217529 342.403046,353.287048 
	C341.482605,352.267944 341.369141,349.247620 342.235077,348.139648 
	C344.350647,345.432678 347.448303,343.514893 349.741058,340.917847 
	C351.590790,338.822662 352.777222,336.154572 354.378876,333.823761 
	C355.741669,331.840668 357.276978,329.976166 359.095520,327.931519 
z"/>
<path fill="#000000" opacity="1.000000" stroke="none" 
	d="
M362.093353,173.524994 
	C364.074585,172.069214 366.093903,170.953003 368.475616,169.804276 
	C374.586578,179.541031 380.449677,189.246765 385.948090,199.154877 
	C386.688507,200.489059 385.592499,202.842346 385.346863,204.723740 
	C383.272614,203.853943 380.283936,203.576187 379.274384,202.016983 
	C373.305176,192.797867 367.795654,183.281143 362.093353,173.524994 
z"/>
<path fill="#000000" opacity="1.000000" stroke="none" 
	d="
M156.872772,145.251984 
	C159.277115,143.006119 161.426804,140.371490 164.138702,138.595184 
	C169.815826,134.876617 175.728851,131.501343 181.669891,128.210587 
	C184.124054,126.851219 187.508896,125.437637 188.738525,129.183105 
	C189.223450,130.660217 187.107864,133.803925 185.363785,135.063431 
	C176.423538,141.519745 167.218399,147.609268 157.581207,153.512909 
	C156.995300,150.549896 156.934036,147.900940 156.872772,145.251984 
z"/>
<path fill="#F3F9FA" opacity="1.000000" stroke="none" 
	d="
M269.127289,232.986526 
	C265.603485,240.459396 258.883514,242.676788 253.747955,238.061279 
	C249.764664,234.481354 249.365204,228.690338 252.824142,224.668900 
	C256.857361,219.979797 261.309357,220.063126 267.347961,225.116669 
	C267.645630,225.298126 267.646545,225.320663 267.738678,225.638931 
	C268.279938,226.970413 268.729034,227.983643 269.120148,229.393082 
	C269.083893,230.855042 269.105591,231.920776 269.127289,232.986526 
z"/>
<path fill="#000000" opacity="1.000000" stroke="none" 
	d="
M379.047119,299.699677 
	C381.662323,290.732330 384.438416,281.807007 386.796753,272.772614 
	C387.524078,269.986420 388.754486,268.102386 391.339050,269.258423 
	C392.795990,269.910095 394.499329,272.892792 394.123230,274.298950 
	C391.424500,284.388916 388.220398,294.343750 384.694763,304.685944 
	C380.775696,304.915619 379.074463,303.118652 379.047119,299.699677 
z"/>
<path fill="#EFF7F8" opacity="1.000000" stroke="none" 
	d="
M165.904755,364.075256 
	C158.686813,358.275848 151.437729,352.514557 144.270706,346.652893 
	C142.225143,344.979889 141.517014,342.824646 143.622787,340.656616 
	C145.756577,338.459717 147.822876,338.823486 150.148254,340.746918 
	C157.288376,346.653046 164.571411,352.386353 171.857910,358.767822 
	C169.912872,360.924286 167.908813,362.499786 165.904755,364.075256 
z"/>
<path fill="#F3F9FA" opacity="1.000000" stroke="none" 
	d="
M314.265289,231.845612 
	C305.320679,232.458405 300.039429,227.181992 302.441132,220.406769 
	C303.903381,216.281586 306.706238,213.646439 311.409393,213.986481 
	C316.096283,214.325317 319.325592,217.009277 320.365173,221.383453 
	C321.504089,226.175522 319.195251,229.728775 314.265289,231.845612 
z"/>
<path fill="#A9C9D6" opacity="1.000000" stroke="none" 
	d="
M166.088806,364.367493 
	C167.908813,362.499786 169.912872,360.924286 172.071350,359.024017 
	C179.680618,362.593231 187.094986,366.567780 194.610336,370.341248 
	C197.583237,371.833923 199.326477,373.915009 197.691254,376.997467 
	C196.065216,380.062653 193.215408,379.174469 190.732880,377.847870 
	C182.563293,373.482269 174.423874,369.060150 166.088806,364.367493 
z"/>
<path fill="#F4F9FA" opacity="1.000000" stroke="none" 
	d="
M237.722931,86.105423 
	C238.749405,88.177635 240.642136,90.914474 240.066635,91.610512 
	C238.326569,93.715012 235.806686,95.460869 233.247910,96.511612 
	C231.208542,97.349045 228.632141,96.765419 226.354965,97.161919 
	C222.326920,97.863274 220.160110,96.929710 219.917603,92.278938 
	C219.486084,84.002769 219.258438,83.685638 225.133560,83.427513 
	C229.311234,83.243965 234.174301,80.963684 237.722931,86.105423 
z"/>
<path fill="#A6C7D2" opacity="1.000000" stroke="none" 
	d="
M214.490082,326.895294 
	C212.764694,322.277008 208.252548,323.042389 205.111206,322.232452 
	C200.970520,321.164825 198.203812,319.490723 198.000076,315.130280 
	C202.852768,318.835175 205.595291,315.816010 208.362854,312.909882 
	C212.965912,313.316711 217.568985,313.723511 222.569946,314.054810 
	C223.420975,318.415955 223.874069,322.852600 224.374054,327.748230 
	C220.576523,327.384033 217.750397,327.113007 214.490082,326.895294 
z"/>
<path fill="#ABCBD6" opacity="1.000000" stroke="none" 
	d="
M123.050308,302.051331 
	C127.795753,309.952240 132.694778,317.768829 137.127472,325.841461 
	C137.823212,327.108582 136.403000,329.537598 135.961182,331.429352 
	C134.246277,330.827057 131.737976,330.744598 130.946793,329.537079 
	C126.238007,322.350342 121.926147,314.903534 118.132034,307.250732 
	C122.676079,307.470917 122.854507,304.753571 123.050308,302.051331 
z"/>
<path fill="#F5FBFB" opacity="1.000000" stroke="none" 
	d="
M178.438080,111.955231 
	C175.984100,108.683174 173.905090,105.434601 171.492737,102.053085 
	C171.914032,100.689232 172.678299,99.464088 173.421555,98.226326 
	C175.719666,94.399216 179.220734,93.413055 183.323196,94.251770 
	C187.303192,95.065460 189.266083,97.825356 189.399612,101.736076 
	C189.543823,105.959908 187.748291,109.175232 183.625763,110.704720 
	C182.077133,111.279266 180.420471,111.562614 178.438080,111.955231 
z"/>
<path fill="#F3F8F9" opacity="1.000000" stroke="none" 
	d="
M401.249878,197.505966 
	C404.798157,196.146683 408.479034,195.098663 412.567566,193.934204 
	C414.599609,195.864273 417.302734,197.777817 417.575531,199.990952 
	C417.916779,202.759003 417.064056,206.556122 415.224030,208.445679 
	C413.610901,210.102234 409.749359,210.584686 407.190765,210.063934 
	C403.480286,209.308746 401.749939,205.991669 401.518463,202.156235 
	C401.431305,200.712433 401.425446,199.263702 401.249878,197.505966 
z"/>
<path fill="#000000" opacity="1.000000" stroke="none" 
	d="
M282.256226,324.993469 
	C281.472198,321.369873 281.045044,317.878479 280.716766,315.195496 
	C287.621429,314.770782 293.858459,314.387146 300.522522,314.481964 
	C300.612122,318.624481 300.274719,322.288483 299.937317,325.952515 
	C299.937317,325.952515 299.998291,325.989960 299.712830,326.015747 
	C299.273621,326.362213 299.119904,326.682861 298.966187,327.003479 
	C293.482483,326.661865 287.706543,328.865570 282.256226,324.993469 
z"/>
<path fill="#000000" opacity="1.000000" stroke="none" 
	d="
M422.985260,232.330505 
	C421.947723,235.364700 421.466736,238.523773 419.657135,240.404251 
	C418.576324,241.527359 414.818268,241.502731 413.324188,240.465866 
	C411.061981,238.895966 408.966003,236.223007 408.176361,233.603622 
	C407.079651,229.965714 410.447266,225.874619 414.141479,225.103745 
	C417.991974,224.300247 421.030548,226.641968 422.985260,232.330505 
z"/>
<path fill="#0C3851" opacity="1.000000" stroke="none" 
	d="
M269.430054,232.843201 
	C269.105591,231.920776 269.083893,230.855042 269.468445,229.307983 
	C271.948029,225.868347 271.066986,224.787582 267.646545,225.320663 
	C267.646545,225.320663 267.645630,225.298126 267.633240,225.302094 
	C269.720490,218.963455 274.315247,221.960388 279.459900,222.432861 
	C278.969055,227.450439 278.491150,232.335968 277.659637,237.666214 
	C276.543701,240.755692 275.781372,243.400467 275.019043,246.045227 
	C273.917023,247.040039 272.815033,248.034836 271.393890,249.096680 
	C265.789398,246.370834 265.997681,246.557983 269.938965,242.171783 
	C271.862762,240.030823 275.036285,237.689056 272.752289,234.008682 
	C272.276978,233.242767 270.766296,233.119370 269.430054,232.843201 
z"/>
<path fill="#A7C6D2" opacity="1.000000" stroke="none" 
	d="
M238.109879,311.632202 
	C242.255325,306.603394 246.174118,301.784576 250.436050,296.934418 
	C252.698730,308.273407 245.940384,321.440521 235.524872,324.293945 
	C236.383652,319.759766 237.133438,315.800995 238.109879,311.632202 
z"/>
<path fill="#A8C8D4" opacity="1.000000" stroke="none" 
	d="
M304.459198,370.333038 
	C306.512146,371.361603 308.207672,372.532990 309.903259,373.704407 
	C308.683746,375.447601 307.840424,377.891937 306.167328,378.789642 
	C302.562256,380.723907 298.506927,381.804382 294.681580,383.347534 
	C291.983490,384.435944 289.162292,384.234680 288.629456,381.366852 
	C288.319702,379.699707 290.164276,376.753357 291.848724,375.772736 
	C295.666992,373.550018 299.986237,372.187897 304.459198,370.333038 
z"/>
<path fill="#000000" opacity="1.000000" stroke="none" 
	d="
M122.972351,301.680328 
	C122.854507,304.753571 122.676079,307.470917 118.384148,306.922180 
	C117.985207,306.886963 117.990982,306.973328 117.990448,306.697937 
	C117.675613,306.286469 117.361313,306.150391 117.047012,306.014313 
	C115.021523,300.788849 112.996017,295.563416 110.889725,289.561829 
	C111.875755,286.292084 111.672791,282.617859 116.023361,283.177185 
	C118.313705,289.221222 120.604050,295.265289 122.972351,301.680328 
z"/>
<path fill="#000000" opacity="1.000000" stroke="none" 
	d="
M313.155029,298.862061 
	C312.664001,294.808502 312.731750,292.130005 318.463104,291.390594 
	C323.637604,290.722992 328.373993,286.659668 333.944702,284.143799 
	C333.739594,288.115143 332.893402,292.036621 332.047180,295.958099 
	C325.901154,296.953064 319.755096,297.948029 313.155029,298.862061 
z"/>
<path fill="#000000" opacity="1.000000" stroke="none" 
	d="
M209.341675,125.985153 
	C204.719177,130.424332 202.018021,130.783234 198.417648,127.854446 
	C195.017624,125.088623 195.402069,121.882599 197.298676,118.576561 
	C199.430756,114.860039 203.249023,115.308197 206.120728,116.439720 
	C210.008240,117.971481 210.638306,121.751755 209.341675,125.985153 
z"/>
<path fill="#A7CBD6" opacity="1.000000" stroke="none" 
	d="
M300.239441,326.253784 
	C300.274719,322.288483 300.612122,318.624481 300.943359,314.541077 
	C302.518158,313.402252 304.099182,312.682770 306.069275,311.920288 
	C309.603790,311.877289 312.749207,311.877289 316.545929,311.877289 
	C313.689453,320.080475 308.070435,324.337158 300.239441,326.253784 
z"/>
<path fill="#A7C8D2" opacity="1.000000" stroke="none" 
	d="
M287.718842,353.250977 
	C287.449249,354.239685 287.114136,355.598297 286.246887,356.276825 
	C282.104034,359.518066 282.076050,360.626587 286.807556,364.075317 
	C285.309204,364.701874 283.444336,365.243134 281.208252,365.862610 
	C276.808563,365.325104 272.780151,364.709412 268.338135,364.044128 
	C267.865875,361.951202 267.807159,359.907898 267.856567,357.438110 
	C274.445862,355.776978 280.926971,354.542236 287.718842,353.250977 
z"/>
<path fill="#EFF6F8" opacity="1.000000" stroke="none" 
	d="
M156.560089,145.328705 
	C156.934036,147.900940 156.995300,150.549896 157.270813,153.595245 
	C154.218567,157.155334 151.112869,160.521881 147.566788,163.332870 
	C146.733292,163.993576 143.789474,163.289902 142.958282,162.277008 
	C142.185074,161.334747 142.267044,158.494720 143.125702,157.612259 
	C147.286575,153.336029 151.835800,149.437683 156.560089,145.328705 
z"/>
<path fill="#000000" opacity="1.000000" stroke="none" 
	d="
M107.559471,232.721710 
	C103.299957,230.667068 102.136528,227.693848 103.720222,223.655899 
	C105.160423,219.983795 108.577255,218.850433 111.335655,220.347702 
	C113.516884,221.531677 115.718636,225.026566 115.668892,227.449158 
	C115.583511,231.607300 112.197449,233.430878 107.559471,232.721710 
z"/>
<path fill="#000000" opacity="1.000000" stroke="none" 
	d="
M385.278839,227.417404 
	C386.383301,224.426727 387.067383,221.092850 389.110748,219.460617 
	C390.238770,218.559586 394.217316,219.860718 395.896881,221.329010 
	C398.581055,223.675507 397.787872,228.393921 395.101074,230.329269 
	C391.283783,233.078949 388.239594,232.278320 385.278839,227.417404 
z"/>
<path fill="#E9F3F5" opacity="1.000000" stroke="none" 
	d="
M116.081284,282.738403 
	C111.672791,282.617859 111.875755,286.292084 110.781235,289.155273 
	C109.462845,284.604797 108.088135,279.704712 106.914711,274.756866 
	C106.268120,272.030487 107.009506,269.556641 110.118820,269.138947 
	C113.442757,268.692413 114.738007,270.960693 115.077156,273.959808 
	C115.392044,276.744171 115.782196,279.520020 116.081284,282.738403 
z"/>
<path fill="#ABCDD9" opacity="1.000000" stroke="none" 
	d="
M332.395935,295.933899 
	C332.893402,292.036621 333.739594,288.115143 334.265381,283.999023 
	C334.989349,281.067566 336.033783,278.330811 337.111237,275.196259 
	C346.117340,282.751007 344.655487,289.765656 332.395935,295.933899 
z"/>
<path fill="#A5C5D0" opacity="1.000000" stroke="none" 
	d="
M329.360168,359.594940 
	C332.762146,364.107544 332.555878,367.327423 329.028900,369.576324 
	C326.056213,371.471710 322.040558,370.522766 320.379547,367.532318 
	C318.673859,364.461426 320.011993,360.074982 323.547302,358.808441 
	C325.121155,358.244568 327.211761,359.123260 329.360168,359.594940 
z"/>
<path fill="#ACCCD7" opacity="1.000000" stroke="none" 
	d="
M378.726990,299.875610 
	C379.074463,303.118652 380.775696,304.915619 384.587433,305.040405 
	C383.346161,308.281464 382.144897,311.842834 379.943115,314.607239 
	C378.805725,316.035309 375.891663,316.048340 373.780334,316.700745 
	C373.490509,314.646912 372.446259,312.322021 373.066772,310.595306 
	C374.388855,306.916107 376.574890,303.547424 378.726990,299.875610 
z"/>
<path fill="#000000" opacity="1.000000" stroke="none" 
	d="
M340.289612,261.017944 
	C337.240936,257.102234 339.022736,254.690216 345.537842,253.895142 
	C347.902802,257.822876 349.874725,261.715576 351.846680,265.608276 
	C351.421112,265.803802 350.995575,265.999298 350.570007,266.194824 
	C347.258453,264.508331 343.946869,262.821838 340.289612,261.017944 
z"/>
<path fill="#EBF6F8" opacity="1.000000" stroke="none" 
	d="
M214.123489,385.131836 
	C210.825287,386.811584 208.239075,385.868256 207.282166,383.098328 
	C206.735764,381.516632 207.527588,378.294250 208.749161,377.582672 
	C210.228745,376.720734 214.191879,377.118561 214.604462,378.058289 
	C215.444138,379.970825 214.622391,382.612793 214.123489,385.131836 
z"/>
<path fill="#EAF5F6" opacity="1.000000" stroke="none" 
	d="
M224.390533,119.344086 
	C223.328201,115.851028 224.618134,113.399010 227.638901,113.178909 
	C229.444977,113.047310 231.919983,114.559685 233.073624,116.098366 
	C233.676514,116.902451 232.559250,119.929367 231.363403,120.951134 
	C229.004959,122.966263 226.461334,122.249763 224.390533,119.344086 
z"/>
<path fill="#64A2B5" opacity="1.000000" stroke="none" 
	d="
M123.897064,366.417114 
	C124.544914,365.341003 125.424553,364.608612 126.120247,363.730499 
	C129.042984,360.041443 129.964706,360.101776 132.961395,364.645996 
	C131.307007,366.348755 129.614014,367.697510 127.533440,369.239105 
	C126.111984,368.519226 125.078117,367.606506 123.897064,366.417114 
z"/>
<path fill="#0C3851" opacity="1.000000" stroke="none" 
	d="
M268.821930,217.959335 
	C267.354340,217.508881 266.273499,217.033768 265.192657,216.558640 
	C265.912292,215.532776 266.433960,214.125824 267.420319,213.613403 
	C268.091736,213.264633 269.413605,214.167923 270.444611,214.511353 
	C270.032623,215.652451 269.620667,216.793564 268.821930,217.959335 
z"/>
<path fill="#06344B" opacity="1.000000" stroke="none" 
	d="
M126.964256,194.931870 
	C127.660263,193.631042 128.356277,192.330231 129.351379,190.947388 
	C130.241150,190.658478 130.831848,190.451584 131.710968,190.122864 
	C132.363892,192.995148 131.605438,195.451401 128.240051,196.674484 
	C127.505409,195.955719 127.234833,195.443787 126.964256,194.931870 
z"/>
<path fill="#0C3851" opacity="1.000000" stroke="none" 
	d="
M280.591675,237.028534 
	C280.601074,237.928925 280.301453,238.857468 279.461609,239.846695 
	C278.614258,239.271591 278.307129,238.635788 278.000000,238.000000 
	C278.760864,237.685547 279.521759,237.371094 280.591675,237.028534 
z"/>
<path fill="#093650" opacity="1.000000" stroke="none" 
	d="
M182.522003,144.698959 
	C182.527725,145.449005 182.323654,145.981247 182.119583,146.513474 
	C181.846786,146.379532 181.573975,146.245605 181.301178,146.111664 
	C181.638184,145.568161 181.975189,145.024658 182.522003,144.698959 
z"/>
<path fill="#ADCAD6" opacity="1.000000" stroke="none" 
	d="
M164.220306,338.215515 
	C165.108017,338.385742 166.061981,338.868591 166.990906,339.698792 
	C166.072769,339.540161 165.179672,339.034180 164.220306,338.215515 
z"/>
<path fill="#A7C8D2" opacity="1.000000" stroke="none" 
	d="
M287.529449,364.219360 
	C288.079102,363.818359 289.003601,363.394836 290.281219,363.096588 
	C289.724304,363.546875 288.814301,363.871857 287.529449,364.219360 
z"/>
<path fill="#A7CBD6" opacity="1.000000" stroke="none" 
	d="
M299.321045,326.978577 
	C299.119904,326.682861 299.273621,326.362213 299.701813,325.981720 
	C299.876129,326.265808 299.776001,326.609772 299.321045,326.978577 
z"/>
<path fill="#ABCBD6" opacity="1.000000" stroke="none" 
	d="
M117.026932,306.373718 
	C117.361313,306.150391 117.675613,306.286469 118.033630,306.695068 
	C117.720520,306.889435 117.363678,306.811279 117.026932,306.373718 
z"/>
<path fill="#0A364D" opacity="1.000000" stroke="none" 
	d="
M171.608856,177.023254 
	C172.414551,178.057983 173.338333,179.252609 173.260345,180.377792 
	C173.182449,181.501694 172.280243,182.733826 171.418625,183.599106 
	C170.142014,184.881195 167.920776,185.595078 167.285217,187.063202 
	C166.072922,189.863541 165.986053,193.140274 164.857849,195.992096 
	C164.237854,197.559326 162.674759,199.107498 161.141708,199.889862 
	C157.303909,201.848297 152.796646,202.489304 150.535324,207.070526 
	C149.967880,208.220169 147.369904,208.367538 145.313751,208.972961 
	C149.632935,205.270340 154.418915,201.660522 159.012650,197.820709 
	C160.596680,196.496643 161.965622,194.746826 162.975586,192.936432 
	C165.871719,187.745148 168.533798,182.423279 171.608856,177.023254 
z"/>
<path fill="#0A364D" opacity="1.000000" stroke="none" 
	d="
M135.427216,200.121796 
	C136.616013,196.201294 137.261108,191.443161 139.804688,188.152527 
	C145.540939,180.731522 152.198105,174.019791 158.547485,167.080688 
	C159.011276,166.573822 160.013535,166.559631 161.112213,166.472702 
	C152.887741,177.736115 144.316513,188.843216 135.427216,200.121796 
z"/>
<path fill="#0A364D" opacity="1.000000" stroke="none" 
	d="
M142.488800,212.072479 
	C146.225067,215.788696 147.949112,220.136353 145.407379,225.756592 
	C144.935516,224.343109 144.669891,222.810654 143.940384,221.545761 
	C142.995056,219.906677 141.680008,218.480835 140.120514,216.927948 
	C140.546951,215.342484 141.376999,213.792282 142.488800,212.072479 
z"/>
<path fill="#0A364D" opacity="1.000000" stroke="none" 
	d="
M124.907394,227.606842 
	C124.447975,226.037445 123.336197,223.785675 123.962524,222.236725 
	C125.784546,217.730820 128.302536,213.506348 130.917999,209.191315 
	C129.208649,215.222610 127.128853,221.234070 124.907394,227.606842 
z"/>
<path fill="#0A364D" opacity="1.000000" stroke="none" 
	d="
M161.912735,166.327271 
	C161.343948,162.945572 162.719223,160.935165 166.917847,161.228134 
	C165.608353,162.938126 163.897873,164.556290 161.912735,166.327271 
z"/>
<path fill="#0A364D" opacity="1.000000" stroke="none" 
	d="
M131.505737,209.044006 
	C132.204865,207.273331 127.841820,203.402145 133.806671,203.088409 
	C133.382553,205.026001 132.580521,206.929260 131.505737,209.044006 
z"/>
<path fill="#0A364D" opacity="1.000000" stroke="none" 
	d="
M123.403358,232.927032 
	C123.189178,232.389526 123.265984,231.733002 123.635056,231.039185 
	C123.849663,231.603943 123.772003,232.205978 123.403358,232.927032 
z"/>
<path fill="#0A364D" opacity="1.000000" stroke="none" 
	d="
M134.411896,203.004471 
	C134.259415,202.578781 134.377777,201.977951 134.747986,201.188202 
	C134.894135,201.609283 134.788437,202.219315 134.411896,203.004471 
z"/>
<path fill="#0A364D" opacity="1.000000" stroke="none" 
	d="
M173.594040,174.853317 
	C173.675400,175.081741 173.487946,175.392883 173.030426,175.783661 
	C172.948654,175.554199 173.136932,175.245132 173.594040,174.853317 
z"/>
<path fill="#0A364D" opacity="1.000000" stroke="none" 
	d="
M172.602859,175.873932 
	C172.690247,176.079117 172.531784,176.398438 172.123474,176.832352 
	C172.034744,176.627335 172.195862,176.307709 172.602859,175.873932 
z"/>
<path fill="#0C3850" opacity="1.000000" stroke="none" 
	d="
M218.993652,245.382477 
	C221.049210,248.693863 223.102783,251.572891 224.134598,253.019440 
	C229.172409,252.594376 232.774261,251.529633 236.022995,252.193344 
	C240.989807,253.208054 243.298111,258.869598 241.557938,263.765564 
	C239.629150,269.192139 234.286591,272.431671 229.803955,269.585693 
	C223.299835,265.456268 215.540207,263.397919 210.235031,257.099976 
	C207.587906,253.957489 205.791931,251.221710 206.158875,247.032364 
	C206.476486,243.406143 206.224884,239.730072 206.224884,235.114914 
	C196.765656,236.734909 187.340286,232.401230 178.473755,238.171539 
	C174.986313,240.441162 171.250946,239.086685 168.485641,236.256866 
	C165.213120,232.907959 164.884995,228.854370 167.024582,224.738754 
	C169.143204,220.663467 173.239380,218.460861 177.008667,220.199966 
	C183.982025,223.417389 191.116058,221.389114 198.036926,222.489746 
	C208.007355,224.075348 214.746384,219.997894 220.387070,212.244675 
	C224.173157,207.040649 225.335632,199.190231 222.083191,193.527695 
	C219.947708,189.809799 220.194168,186.139297 222.536591,182.720245 
	C224.836472,179.363266 228.559448,177.684052 232.118225,179.169479 
	C234.982010,180.364792 237.353745,183.264618 239.299179,185.886475 
	C240.125000,186.999451 239.974945,189.804291 239.115234,191.034058 
	C235.217789,196.609070 236.221268,202.816071 236.469040,208.838272 
	C236.628860,212.723129 235.461746,215.568634 232.592041,217.965851 
	C231.190170,219.136917 230.010086,220.590591 228.546997,221.668427 
	C220.620865,227.507339 217.223618,235.156372 218.993652,245.382477 
z"/>
<path fill="#0A364D" opacity="1.000000" stroke="none" 
	d="
M208.359924,312.447632 
	C205.595291,315.816010 202.852768,318.835175 198.269806,314.930878 
	C197.576492,313.960510 197.221832,313.127991 196.677979,311.530579 
	C196.561569,302.941376 196.689178,295.116699 196.648819,287.292908 
	C196.642685,286.100800 196.196976,284.553802 195.378418,283.782013 
	C190.654617,279.327972 185.853149,274.942139 180.852203,270.806213 
	C179.603989,269.773926 177.491608,269.239532 175.831207,269.344330 
	C167.176422,269.890625 159.217484,268.461975 151.708115,260.873077 
	C151.916412,263.913818 152.026169,265.515961 152.135925,267.118073 
	C152.403336,270.472778 152.670731,273.827454 152.929260,277.592896 
	C147.988358,277.398926 147.272186,276.142456 148.509720,271.563293 
	C148.891953,270.148987 148.300095,268.394318 147.891388,266.865784 
	C147.511154,265.443817 146.754303,264.125488 146.229324,262.736572 
	C146.134354,262.485291 146.358765,262.113312 146.302048,262.346344 
	C149.642914,260.934326 152.579758,259.273346 155.723419,258.641876 
	C156.572617,258.471252 158.048523,261.420563 159.236755,262.937775 
	C159.000900,263.401123 158.765030,263.864471 158.529160,264.327820 
	C165.749832,265.314941 173.250610,265.423767 180.090347,267.605255 
	C184.475922,269.004028 187.855545,273.498718 191.746033,276.528625 
	C194.280411,278.502380 196.809601,280.534302 199.579514,282.125092 
	C200.503693,282.655853 203.143707,282.196075 203.302521,281.673462 
	C203.715118,280.315796 203.768372,278.062347 202.924088,277.255310 
	C200.287323,274.734863 197.064575,272.838593 194.296478,270.438049 
	C193.372147,269.636414 193.125168,268.047791 192.594666,266.807770 
	C192.545898,266.693787 192.724808,266.500763 192.735107,266.340393 
	C192.887802,263.964508 194.112671,260.849518 190.532776,260.355286 
	C189.457611,260.206848 188.003555,262.802582 185.788101,265.118561 
	C182.857483,263.846588 178.889114,262.092804 174.893600,260.403168 
	C172.859100,259.542816 170.795883,258.180756 168.710907,258.112885 
	C161.622803,257.882233 156.842514,255.222321 153.549835,248.458771 
	C148.068130,237.198700 148.987106,226.796677 156.025833,216.920486 
	C157.455307,214.914749 160.811172,214.281952 163.690186,213.027573 
	C148.885849,223.406067 149.573395,240.029358 156.875046,249.107925 
	C162.008148,255.490158 168.726898,257.185791 176.328735,256.886017 
	C177.292496,256.847992 178.310822,255.936462 179.143875,255.238617 
	C182.441650,252.476196 186.055191,252.056183 189.780090,254.004898 
	C193.472122,255.936401 195.243561,259.042328 195.009125,263.378296 
	C194.936417,264.723114 195.751587,266.229584 196.484589,267.470490 
	C197.143341,268.585663 198.086121,269.704620 199.179672,270.364258 
	C207.939316,275.648346 209.344421,283.696106 208.489166,293.049652 
	C207.916428,299.313202 208.365280,305.670166 208.359924,312.447632 
z"/>
<path fill="#0A364D" opacity="1.000000" stroke="none" 
	d="
M178.991669,202.578369 
	C179.323929,197.991638 179.613037,192.982147 180.185257,188.005203 
	C180.421844,185.947342 181.265350,183.959244 181.617203,182.706909 
	C187.381653,180.399994 193.031021,178.066406 198.749405,175.916367 
	C199.803329,175.520096 201.158585,175.723618 202.335770,175.904297 
	C204.088150,176.173248 205.805817,176.668259 207.969208,177.103668 
	C206.858475,177.725845 205.243362,178.960373 203.786636,178.795486 
	C190.804352,177.326004 179.017395,189.223206 178.991669,202.578369 
z"/>
<path fill="#0A364D" opacity="1.000000" stroke="none" 
	d="
M172.449356,210.002945 
	C174.201431,208.419662 176.394180,206.883392 178.878174,205.137650 
	C179.742630,206.409561 180.315826,207.890930 181.151215,210.049942 
	C178.038223,210.049942 175.464127,210.049942 172.449356,210.002945 
z"/>
<path fill="#0A364D" opacity="1.000000" stroke="none" 
	d="
M209.403961,176.165619 
	C209.272781,175.704254 209.419724,175.057007 209.857056,174.228302 
	C209.992325,174.691132 209.837204,175.335419 209.403961,176.165619 
z"/>
<path fill="#0A364D" opacity="1.000000" stroke="none" 
	d="
M210.334625,174.050507 
	C210.284760,173.841385 210.508423,173.548447 211.002930,173.173737 
	C211.051880,173.383545 210.830017,173.675125 210.334625,174.050507 
z"/>
<path fill="#0A364D" opacity="1.000000" stroke="none" 
	d="
M277.653015,238.055450 
	C278.307129,238.635788 278.614258,239.271591 279.253662,240.062897 
	C278.271362,242.074936 276.956818,243.931442 275.330627,245.916595 
	C275.781372,243.400467 276.543701,240.755692 277.653015,238.055450 
z"/>
<path fill="#0A364D" opacity="1.000000" stroke="none" 
	d="
M165.855591,295.271698 
	C168.897583,295.738770 171.761444,296.535217 174.839676,297.635040 
	C171.365616,299.627899 167.734528,301.464294 163.961365,302.936584 
	C162.392853,303.548645 160.519348,303.480713 158.789703,303.448120 
	C158.576523,303.444092 157.921280,301.395142 158.288818,300.895447 
	C159.359329,299.440033 160.742340,298.151550 162.203568,297.068542 
	C163.184952,296.341125 164.507553,296.074097 165.855591,295.271698 
z"/>
<path fill="#0A364D" opacity="1.000000" stroke="none" 
	d="
M154.018341,282.378723 
	C155.602463,284.040436 157.177063,286.151855 158.933548,288.539795 
	C155.832596,291.124084 153.979324,290.571686 154.001129,286.261719 
	C154.006912,285.117310 154.006424,283.972870 154.018341,282.378723 
z"/>
<path fill="#0A364D" opacity="1.000000" stroke="none" 
	d="
M145.907852,240.724823 
	C145.970383,243.519455 145.970383,245.916260 145.970383,248.313049 
	C145.351440,248.307968 144.732498,248.302872 144.113541,248.297791 
	C144.310608,245.428085 144.507675,242.558380 144.704742,239.688690 
	C145.084915,239.901459 145.465118,240.114227 145.907852,240.724823 
z"/>
<path fill="#0A364D" opacity="1.000000" stroke="none" 
	d="
M161.078674,291.151611 
	C161.984558,291.659973 162.859177,292.538147 163.875275,293.691162 
	C160.866425,295.775574 161.436401,293.066071 161.078674,291.151611 
z"/>
<path fill="#0A364D" opacity="1.000000" stroke="none" 
	d="
M153.131805,279.097748 
	C153.336273,279.057007 153.620956,279.265564 153.953064,279.740631 
	C153.737656,279.787109 153.474838,279.567078 153.131805,279.097748 
z"/>
<path fill="#64A2B5" opacity="1.000000" stroke="none" 
	d="
M133.033112,365.325256 
	C133.967178,365.499969 134.934372,365.999939 135.901550,366.499908 
	C135.599075,366.918976 135.296616,367.338013 134.994141,367.757080 
	C134.351501,367.054901 133.708862,366.352692 133.033112,365.325256 
z"/>
<path fill="#0A364D" opacity="1.000000" stroke="none" 
	d="
M126.683899,195.130585 
	C127.234833,195.443787 127.505409,195.955719 127.887993,196.734436 
	C126.263634,199.330551 124.527267,201.659882 122.425125,203.996704 
	C123.507423,201.112564 124.955482,198.220932 126.683899,195.130585 
z"/>
<path fill="#0A364D" opacity="1.000000" stroke="none" 
	d="
M121.247681,205.867371 
	C121.173500,205.690201 121.319786,205.383636 121.706680,204.964676 
	C121.787582,205.147507 121.627861,205.442749 121.247681,205.867371 
z"/>
<path fill="#F4F9F9" opacity="1.000000" stroke="none" 
	d="
M152.483276,267.170776 
	C152.026169,265.515961 151.916412,263.913818 151.708115,260.873077 
	C159.217484,268.461975 167.176422,269.890625 175.831207,269.344330 
	C177.491608,269.239532 179.603989,269.773926 180.852203,270.806213 
	C185.853149,274.942139 190.654617,279.327972 195.378418,283.782013 
	C196.196976,284.553802 196.642685,286.100800 196.648819,287.292908 
	C196.689178,295.116699 196.561569,302.941376 196.645660,311.189514 
	C194.319641,309.354797 191.925323,306.988464 189.334793,304.861053 
	C184.446442,300.846588 181.464691,295.861603 181.080948,289.263092 
	C172.651367,288.589325 165.123245,285.815247 159.831055,279.147980 
	C156.993561,275.573212 155.132370,271.223511 152.483276,267.170776 
z"/>
<path fill="#0A364D" opacity="1.000000" stroke="none" 
	d="
M267.738678,225.638931 
	C271.066986,224.787582 271.948029,225.868347 269.526428,228.911774 
	C268.729034,227.983643 268.279938,226.970413 267.738678,225.638931 
z"/>
</svg>